<svg xmlns="http://www.w3.org/2000/svg" width="8.005" height="8.005" viewBox="0 0 8.005 8.005">
  <g id="call" transform="translate(0 0)">
    <g id="Group_1984" data-name="Group 1984" transform="translate(0 0)">
      <g id="Group_1983" data-name="Group 1983" transform="translate(0 0)">
        <path id="Path_4512" data-name="Path 4512" d="M7.85,6.365l-.887-.592-.789-.526a.349.349,0,0,0-.469.076l-.488.628a.348.348,0,0,1-.444.092A5.684,5.684,0,0,1,3.185,4.82,5.724,5.724,0,0,1,1.962,3.233a.348.348,0,0,1,.092-.444L2.681,2.3a.349.349,0,0,0,.076-.469l-.51-.765L1.64.156A.349.349,0,0,0,1.17.05L.469.47a.856.856,0,0,0-.389.5c-.192.7-.23,2.241,2.24,4.711s4.012,2.432,4.711,2.24a.856.856,0,0,0,.5-.389l.421-.7A.349.349,0,0,0,7.85,6.365Z" transform="translate(0 0)" fill="#fff"/>
        <path id="Path_4513" data-name="Path 4513" d="M282.62,62.068a2.349,2.349,0,0,1,2.346,2.346.138.138,0,0,0,.276,0,2.625,2.625,0,0,0-2.622-2.622.138.138,0,1,0,0,.276Z" transform="translate(-278.066 -60.826)" fill="#fff"/>
        <path id="Path_4514" data-name="Path 4514" d="M282.619,115.032a1.52,1.52,0,0,1,1.518,1.518.138.138,0,0,0,.276,0,1.8,1.8,0,0,0-1.794-1.794.138.138,0,1,0,0,.276Z" transform="translate(-278.065 -112.962)" fill="#fff"/>
        <path id="Path_4515" data-name="Path 4515" d="M282.62,168a.691.691,0,0,1,.69.69.138.138,0,1,0,.276,0,.967.967,0,0,0-.966-.966.138.138,0,0,0,0,.276Z" transform="translate(-278.066 -165.101)" fill="#fff"/>
      </g>
    </g>
  </g>
</svg>
