<svg xmlns="http://www.w3.org/2000/svg" width="500" height="372.61" viewBox="0 0 500 372.61">
  <g id="_2598561" data-name="2598561" transform="translate(0 -54.95)">
    <g id="Background_2">
      <g id="Group_2142" data-name="Group 2142">
        <g id="Group_2114" data-name="Group 2114">
          <g id="Group_2113" data-name="Group 2113">
            <g id="Group_2112" data-name="Group 2112">
              <rect id="Rectangle_313" data-name="Rectangle 313" width="500" height="0.25" transform="translate(0 382.4)" fill="#d1e3ff"/>
              <rect id="Rectangle_314" data-name="Rectangle 314" width="48.63" height="0.25" transform="translate(90.5 393.76)" fill="#d1e3ff"/>
              <rect id="Rectangle_315" data-name="Rectangle 315" width="12.79" height="0.25" transform="translate(66.89 393.89)" fill="#d1e3ff"/>
              <rect id="Rectangle_316" data-name="Rectangle 316" width="14.97" height="0.25" transform="translate(194.72 392.21)" fill="#d1e3ff"/>
              <rect id="Rectangle_317" data-name="Rectangle 317" width="61.22" height="0.25" transform="translate(215.44 392.21)" fill="#d1e3ff"/>
              <rect id="Rectangle_318" data-name="Rectangle 318" width="56.78" height="0.25" transform="translate(363.89 394.14)" fill="#d1e3ff"/>
              <rect id="Rectangle_319" data-name="Rectangle 319" width="15.04" height="0.25" transform="translate(343.29 394.14)" fill="#d1e3ff"/>
              <rect id="Rectangle_320" data-name="Rectangle 320" width="12.89" height="0.25" transform="translate(435.67 389.63)" fill="#d1e3ff"/>
              <path id="Path_4607" data-name="Path 4607" d="M237.01,337.8H43.92a5.715,5.715,0,0,1-5.71-5.71V60.66a5.715,5.715,0,0,1,5.71-5.71h193.1a5.715,5.715,0,0,1,5.71,5.71V332.09A5.73,5.73,0,0,1,237.01,337.8ZM43.92,55.2a5.467,5.467,0,0,0-5.46,5.46V332.09a5.467,5.467,0,0,0,5.46,5.46h193.1a5.467,5.467,0,0,0,5.46-5.46V60.66a5.467,5.467,0,0,0-5.46-5.46Z" fill="#d1e3ff"/>
              <path id="Path_4608" data-name="Path 4608" d="M453.31,337.8H260.21a5.715,5.715,0,0,1-5.71-5.71V60.66a5.715,5.715,0,0,1,5.71-5.71h193.1a5.715,5.715,0,0,1,5.71,5.71V332.09A5.715,5.715,0,0,1,453.31,337.8ZM260.21,55.2a5.467,5.467,0,0,0-5.46,5.46V332.09a5.467,5.467,0,0,0,5.46,5.46h193.1a5.467,5.467,0,0,0,5.46-5.46V60.66a5.467,5.467,0,0,0-5.46-5.46Z" fill="#d1e3ff"/>
            </g>
          </g>
        </g>
        <g id="Group_2141" data-name="Group 2141">
          <g id="Group_2115" data-name="Group 2115">
            <path id="Path_4609" data-name="Path 4609" d="M500,367.59H431.1a2.812,2.812,0,0,1-2.81-2.81V183.62a2.317,2.317,0,0,0-2.31-2.31h-7.25v-.5h7.25a2.812,2.812,0,0,1,2.81,2.81V364.79a2.317,2.317,0,0,0,2.31,2.31H500Z" fill="#d1e3ff"/>
            <path id="Path_4610" data-name="Path 4610" d="M500,363.94H433.44a2.812,2.812,0,0,1-2.81-2.81V179.96a2.317,2.317,0,0,0-2.31-2.31h-9.6v-.5h9.6a2.812,2.812,0,0,1,2.81,2.81V361.13a2.317,2.317,0,0,0,2.31,2.31H500Z" fill="#d1e3ff"/>
            <path id="Path_4611" data-name="Path 4611" d="M500,360.28H435.78a2.812,2.812,0,0,1-2.81-2.81V176.3a2.317,2.317,0,0,0-2.31-2.31H418.72v-.5h11.94a2.812,2.812,0,0,1,2.81,2.81V357.47a2.317,2.317,0,0,0,2.31,2.31H500Z" fill="#d1e3ff"/>
            <path id="Path_4612" data-name="Path 4612" d="M500,356.62H438.12a2.812,2.812,0,0,1-2.81-2.81V172.64a2.317,2.317,0,0,0-2.31-2.31H418.72v-.5H433a2.812,2.812,0,0,1,2.81,2.81V353.81a2.317,2.317,0,0,0,2.31,2.31H500Z" fill="#d1e3ff"/>
            <path id="Path_4613" data-name="Path 4613" d="M500,352.96H440.46a2.812,2.812,0,0,1-2.81-2.81V168.99a2.317,2.317,0,0,0-2.31-2.31H418.72v-.5h16.62a2.812,2.812,0,0,1,2.81,2.81V350.16a2.317,2.317,0,0,0,2.31,2.31H500Z" fill="#d1e3ff"/>
            <path id="Path_4614" data-name="Path 4614" d="M500,349.3H442.81a2.812,2.812,0,0,1-2.81-2.81V165.33a2.317,2.317,0,0,0-2.31-2.31H418.73v-.5h18.96a2.812,2.812,0,0,1,2.81,2.81V346.5a2.317,2.317,0,0,0,2.31,2.31H500Z" fill="#d1e3ff"/>
            <path id="Path_4615" data-name="Path 4615" d="M500,345.64H445.15a2.812,2.812,0,0,1-2.81-2.81V161.67a2.317,2.317,0,0,0-2.31-2.31h-21.3v-.5h21.3a2.812,2.812,0,0,1,2.81,2.81V342.84a2.317,2.317,0,0,0,2.31,2.31H500Z" fill="#d1e3ff"/>
            <rect id="Rectangle_321" data-name="Rectangle 321" width="61.8" height="0.5" transform="translate(217.04 199.02)" fill="#d1e3ff"/>
            <rect id="Rectangle_322" data-name="Rectangle 322" width="61.8" height="0.5" transform="translate(217.04 195.36)" fill="#d1e3ff"/>
            <rect id="Rectangle_323" data-name="Rectangle 323" width="61.8" height="0.5" transform="translate(217.04 191.7)" fill="#d1e3ff"/>
            <rect id="Rectangle_324" data-name="Rectangle 324" width="61.8" height="0.5" transform="translate(217.04 188.04)" fill="#d1e3ff"/>
            <rect id="Rectangle_325" data-name="Rectangle 325" width="61.8" height="0.5" transform="translate(217.04 184.39)" fill="#d1e3ff"/>
            <rect id="Rectangle_326" data-name="Rectangle 326" width="61.8" height="0.5" transform="translate(217.04 180.73)" fill="#d1e3ff"/>
            <rect id="Rectangle_327" data-name="Rectangle 327" width="61.8" height="0.5" transform="translate(217.04 177.07)" fill="#d1e3ff"/>
            <rect id="Rectangle_328" data-name="Rectangle 328" width="61.8" height="0.5" transform="translate(217.04 322.98)" fill="#d1e3ff"/>
            <rect id="Rectangle_329" data-name="Rectangle 329" width="61.8" height="0.5" transform="translate(217.04 319.32)" fill="#d1e3ff"/>
            <rect id="Rectangle_330" data-name="Rectangle 330" width="61.8" height="0.5" transform="translate(217.04 315.66)" fill="#d1e3ff"/>
            <rect id="Rectangle_331" data-name="Rectangle 331" width="61.8" height="0.5" transform="translate(217.04 312)" fill="#d1e3ff"/>
            <rect id="Rectangle_332" data-name="Rectangle 332" width="61.8" height="0.5" transform="translate(217.04 308.34)" fill="#d1e3ff"/>
            <rect id="Rectangle_333" data-name="Rectangle 333" width="61.8" height="0.5" transform="translate(217.04 304.69)" fill="#d1e3ff"/>
            <rect id="Rectangle_334" data-name="Rectangle 334" width="61.8" height="0.5" transform="translate(217.04 301.03)" fill="#d1e3ff"/>
          </g>
          <g id="Group_2116" data-name="Group 2116">
            <path id="Path_4616" data-name="Path 4616" d="M95.94,349.77h-24a2.812,2.812,0,0,1-2.81-2.81V165.8a2.317,2.317,0,0,0-2.31-2.31H38.46v-.5H66.83a2.812,2.812,0,0,1,2.81,2.81V346.97a2.317,2.317,0,0,0,2.31,2.31H95.94v.49Z" fill="#d1e3ff"/>
            <path id="Path_4617" data-name="Path 4617" d="M95.94,353.43H69.6a2.812,2.812,0,0,1-2.81-2.81V169.46a2.317,2.317,0,0,0-2.31-2.31H38.46v-.5H64.49a2.812,2.812,0,0,1,2.81,2.81V350.63a2.317,2.317,0,0,0,2.31,2.31H95.94v.49Z" fill="#d1e3ff"/>
            <path id="Path_4618" data-name="Path 4618" d="M95.94,357.09H67.26a2.812,2.812,0,0,1-2.81-2.81V173.11a2.317,2.317,0,0,0-2.31-2.31H38.46v-.5H62.15a2.812,2.812,0,0,1,2.81,2.81V354.28a2.317,2.317,0,0,0,2.31,2.31H95.95v.5Z" fill="#d1e3ff"/>
            <path id="Path_4619" data-name="Path 4619" d="M95.94,360.75H64.92a2.812,2.812,0,0,1-2.81-2.81V176.77a2.317,2.317,0,0,0-2.31-2.31H38.46v-.5H59.8a2.812,2.812,0,0,1,2.81,2.81V357.94a2.317,2.317,0,0,0,2.31,2.31H95.94Z" fill="#d1e3ff"/>
            <path id="Path_4620" data-name="Path 4620" d="M95.94,364.41H62.58a2.812,2.812,0,0,1-2.81-2.81V180.43a2.317,2.317,0,0,0-2.31-2.31h-19v-.5H57.47a2.812,2.812,0,0,1,2.81,2.81V361.6a2.317,2.317,0,0,0,2.31,2.31H95.95v.5Z" fill="#d1e3ff"/>
            <path id="Path_4621" data-name="Path 4621" d="M95.94,368.06H60.24a2.812,2.812,0,0,1-2.81-2.81V184.09a2.317,2.317,0,0,0-2.31-2.31H38.46v-.5H55.13a2.812,2.812,0,0,1,2.81,2.81V365.26a2.317,2.317,0,0,0,2.31,2.31h35.7v.49Z" fill="#d1e3ff"/>
            <path id="Path_4622" data-name="Path 4622" d="M95.94,371.72H57.9a2.812,2.812,0,0,1-2.81-2.81V187.75a2.317,2.317,0,0,0-2.31-2.31H38.46v-.5H52.78a2.812,2.812,0,0,1,2.81,2.81V368.92a2.317,2.317,0,0,0,2.31,2.31H95.94Z" fill="#d1e3ff"/>
          </g>
          <g id="Group_2128" data-name="Group 2128">
            <g id="Group_2127" data-name="Group 2127">
              <g id="Group_2117" data-name="Group 2117">
                <rect id="Rectangle_335" data-name="Rectangle 335" width="101.46" height="15.05" transform="translate(95.94 367.34)" fill="#e3eeff"/>
                <rect id="Rectangle_336" data-name="Rectangle 336" width="20.58" height="15.05" transform="translate(217.98 382.403) rotate(180)" fill="#d1e3ff"/>
                <rect id="Rectangle_337" data-name="Rectangle 337" width="108.33" height="265.97" transform="translate(89.07 101.38)" fill="#eef5ff"/>
                <rect id="Rectangle_338" data-name="Rectangle 338" width="117.58" height="2.27" transform="translate(98.17 99.1)" fill="#e3eeff"/>
                <rect id="Rectangle_339" data-name="Rectangle 339" width="27.44" height="265.97" transform="translate(224.845 367.341) rotate(180)" fill="#e3eeff"/>
              </g>
              <g id="Group_2118" data-name="Group 2118">
                <rect id="Rectangle_340" data-name="Rectangle 340" width="101.87" height="29.14" transform="translate(92.3 104.56)" fill="#e3eeff"/>
                <rect id="Rectangle_341" data-name="Rectangle 341" width="101.87" height="29.14" transform="translate(92.3 334.85)" fill="#e3eeff"/>
                <rect id="Rectangle_342" data-name="Rectangle 342" width="101.87" height="29.14" transform="translate(92.3 301.95)" fill="#e3eeff"/>
                <rect id="Rectangle_343" data-name="Rectangle 343" width="101.87" height="29.14" transform="translate(92.3 269.06)" fill="#e3eeff"/>
                <rect id="Rectangle_344" data-name="Rectangle 344" width="101.87" height="29.14" transform="translate(92.3 236.16)" fill="#e3eeff"/>
                <rect id="Rectangle_345" data-name="Rectangle 345" width="101.87" height="29.14" transform="translate(92.3 203.26)" fill="#e3eeff"/>
                <rect id="Rectangle_346" data-name="Rectangle 346" width="101.87" height="29.14" transform="translate(92.3 170.36)" fill="#e3eeff"/>
                <rect id="Rectangle_347" data-name="Rectangle 347" width="101.87" height="29.14" transform="translate(92.3 137.46)" fill="#e3eeff"/>
              </g>
              <path id="Path_4623" data-name="Path 4623" d="M185.94,129.54H166.08a4.259,4.259,0,0,1-4.25-4.25V112.97a4.259,4.259,0,0,1,4.25-4.25h19.86a4.259,4.259,0,0,1,4.25,4.25v12.32A4.259,4.259,0,0,1,185.94,129.54Z" fill="#fff" opacity="0.7"/>
              <path id="Path_4624" data-name="Path 4624" d="M181.55,120.52v-2.77a1.282,1.282,0,0,1,1.28-1.28h2.78a1.282,1.282,0,0,1,1.28,1.28v2.77a1.282,1.282,0,0,1-1.28,1.28h-2.78A1.289,1.289,0,0,1,181.55,120.52Z" fill="#eef5ff"/>
              <path id="Path_4625" data-name="Path 4625" d="M185.94,162.44H166.08a4.259,4.259,0,0,1-4.25-4.25V145.87a4.259,4.259,0,0,1,4.25-4.25h19.86a4.259,4.259,0,0,1,4.25,4.25v12.32A4.259,4.259,0,0,1,185.94,162.44Z" fill="#fff" opacity="0.7"/>
              <path id="Path_4626" data-name="Path 4626" d="M181.55,153.42v-2.77a1.282,1.282,0,0,1,1.28-1.28h2.78a1.282,1.282,0,0,1,1.28,1.28v2.77a1.282,1.282,0,0,1-1.28,1.28h-2.78A1.289,1.289,0,0,1,181.55,153.42Z" fill="#eef5ff"/>
              <path id="Path_4627" data-name="Path 4627" d="M185.94,195.34H166.08a4.259,4.259,0,0,1-4.25-4.25V178.77a4.259,4.259,0,0,1,4.25-4.25h19.86a4.259,4.259,0,0,1,4.25,4.25v12.32A4.259,4.259,0,0,1,185.94,195.34Z" fill="#fff" opacity="0.7"/>
              <path id="Path_4628" data-name="Path 4628" d="M181.55,186.32v-2.77a1.282,1.282,0,0,1,1.28-1.28h2.78a1.282,1.282,0,0,1,1.28,1.28v2.77a1.282,1.282,0,0,1-1.28,1.28h-2.78A1.289,1.289,0,0,1,181.55,186.32Z" fill="#eef5ff"/>
              <path id="Path_4629" data-name="Path 4629" d="M185.94,228.24H166.08a4.259,4.259,0,0,1-4.25-4.25V211.67a4.259,4.259,0,0,1,4.25-4.25h19.86a4.259,4.259,0,0,1,4.25,4.25v12.32A4.259,4.259,0,0,1,185.94,228.24Z" fill="#fff" opacity="0.7"/>
              <path id="Path_4630" data-name="Path 4630" d="M181.55,219.21v-2.77a1.282,1.282,0,0,1,1.28-1.28h2.78a1.282,1.282,0,0,1,1.28,1.28v2.77a1.282,1.282,0,0,1-1.28,1.28h-2.78A1.276,1.276,0,0,1,181.55,219.21Z" fill="#eef5ff"/>
              <path id="Path_4631" data-name="Path 4631" d="M185.94,261.14H166.08a4.259,4.259,0,0,1-4.25-4.25V244.57a4.259,4.259,0,0,1,4.25-4.25h19.86a4.259,4.259,0,0,1,4.25,4.25v12.32A4.266,4.266,0,0,1,185.94,261.14Z" fill="#fff" opacity="0.7"/>
              <path id="Path_4632" data-name="Path 4632" d="M181.55,252.11v-2.77a1.282,1.282,0,0,1,1.28-1.28h2.78a1.282,1.282,0,0,1,1.28,1.28v2.77a1.282,1.282,0,0,1-1.28,1.28h-2.78A1.276,1.276,0,0,1,181.55,252.11Z" fill="#eef5ff"/>
              <path id="Path_4633" data-name="Path 4633" d="M185.94,294.04H166.08a4.259,4.259,0,0,1-4.25-4.25V277.47a4.259,4.259,0,0,1,4.25-4.25h19.86a4.259,4.259,0,0,1,4.25,4.25v12.32A4.266,4.266,0,0,1,185.94,294.04Z" fill="#fff" opacity="0.7"/>
              <path id="Path_4634" data-name="Path 4634" d="M181.55,285.01v-2.77a1.282,1.282,0,0,1,1.28-1.28h2.78a1.282,1.282,0,0,1,1.28,1.28v2.77a1.282,1.282,0,0,1-1.28,1.28h-2.78A1.276,1.276,0,0,1,181.55,285.01Z" fill="#eef5ff"/>
              <path id="Path_4635" data-name="Path 4635" d="M185.94,326.93H166.08a4.259,4.259,0,0,1-4.25-4.25V310.36a4.259,4.259,0,0,1,4.25-4.25h19.86a4.259,4.259,0,0,1,4.25,4.25v12.32A4.259,4.259,0,0,1,185.94,326.93Z" fill="#fff" opacity="0.7"/>
              <path id="Path_4636" data-name="Path 4636" d="M181.55,317.91v-2.77a1.282,1.282,0,0,1,1.28-1.28h2.78a1.282,1.282,0,0,1,1.28,1.28v2.77a1.282,1.282,0,0,1-1.28,1.28h-2.78A1.289,1.289,0,0,1,181.55,317.91Z" fill="#eef5ff"/>
              <path id="Path_4637" data-name="Path 4637" d="M185.94,359.83H166.08a4.259,4.259,0,0,1-4.25-4.25V343.26a4.259,4.259,0,0,1,4.25-4.25h19.86a4.259,4.259,0,0,1,4.25,4.25v12.32A4.259,4.259,0,0,1,185.94,359.83Z" fill="#fff" opacity="0.7"/>
              <path id="Path_4638" data-name="Path 4638" d="M181.55,350.81v-2.77a1.282,1.282,0,0,1,1.28-1.28h2.78a1.282,1.282,0,0,1,1.28,1.28v2.77a1.282,1.282,0,0,1-1.28,1.28h-2.78A1.289,1.289,0,0,1,181.55,350.81Z" fill="#eef5ff"/>
              <path id="Path_4639" data-name="Path 4639" d="M173.35,120.52v-2.77a1.282,1.282,0,0,1,1.28-1.28h2.78a1.282,1.282,0,0,1,1.28,1.28v2.77a1.282,1.282,0,0,1-1.28,1.28h-2.78A1.289,1.289,0,0,1,173.35,120.52Z" fill="#eef5ff"/>
              <path id="Path_4640" data-name="Path 4640" d="M173.35,153.42v-2.77a1.282,1.282,0,0,1,1.28-1.28h2.78a1.282,1.282,0,0,1,1.28,1.28v2.77a1.282,1.282,0,0,1-1.28,1.28h-2.78A1.289,1.289,0,0,1,173.35,153.42Z" fill="#eef5ff"/>
              <path id="Path_4641" data-name="Path 4641" d="M173.35,186.32v-2.77a1.282,1.282,0,0,1,1.28-1.28h2.78a1.282,1.282,0,0,1,1.28,1.28v2.77a1.282,1.282,0,0,1-1.28,1.28h-2.78A1.289,1.289,0,0,1,173.35,186.32Z" fill="#eef5ff"/>
              <path id="Path_4642" data-name="Path 4642" d="M173.35,219.21v-2.77a1.282,1.282,0,0,1,1.28-1.28h2.78a1.282,1.282,0,0,1,1.28,1.28v2.77a1.282,1.282,0,0,1-1.28,1.28h-2.78A1.276,1.276,0,0,1,173.35,219.21Z" fill="#eef5ff"/>
              <path id="Path_4643" data-name="Path 4643" d="M173.35,252.11v-2.77a1.282,1.282,0,0,1,1.28-1.28h2.78a1.282,1.282,0,0,1,1.28,1.28v2.77a1.282,1.282,0,0,1-1.28,1.28h-2.78A1.276,1.276,0,0,1,173.35,252.11Z" fill="#eef5ff"/>
              <path id="Path_4644" data-name="Path 4644" d="M173.35,285.01v-2.77a1.282,1.282,0,0,1,1.28-1.28h2.78a1.282,1.282,0,0,1,1.28,1.28v2.77a1.282,1.282,0,0,1-1.28,1.28h-2.78A1.276,1.276,0,0,1,173.35,285.01Z" fill="#eef5ff"/>
              <path id="Path_4645" data-name="Path 4645" d="M173.35,317.91v-2.77a1.282,1.282,0,0,1,1.28-1.28h2.78a1.282,1.282,0,0,1,1.28,1.28v2.77a1.282,1.282,0,0,1-1.28,1.28h-2.78A1.289,1.289,0,0,1,173.35,317.91Z" fill="#eef5ff"/>
              <path id="Path_4646" data-name="Path 4646" d="M173.35,350.81v-2.77a1.282,1.282,0,0,1,1.28-1.28h2.78a1.282,1.282,0,0,1,1.28,1.28v2.77a1.282,1.282,0,0,1-1.28,1.28h-2.78A1.289,1.289,0,0,1,173.35,350.81Z" fill="#eef5ff"/>
              <g id="Group_2119" data-name="Group 2119">
                <circle id="Ellipse_53" data-name="Ellipse 53" cx="3.36" cy="3.36" r="3.36" transform="translate(148.24 115.77)" fill="#eef5ff"/>
                <path id="Path_4647" data-name="Path 4647" d="M145.36,119.13a3.36,3.36,0,1,1-3.36-3.36A3.361,3.361,0,0,1,145.36,119.13Z" fill="#eef5ff"/>
                <path id="Path_4648" data-name="Path 4648" d="M135.75,119.13a3.36,3.36,0,1,1-3.36-3.36A3.361,3.361,0,0,1,135.75,119.13Z" fill="#eef5ff"/>
                <circle id="Ellipse_54" data-name="Ellipse 54" cx="3.36" cy="3.36" r="3.36" transform="translate(119.41 115.77)" fill="#eef5ff"/>
              </g>
              <g id="Group_2120" data-name="Group 2120">
                <circle id="Ellipse_55" data-name="Ellipse 55" cx="3.36" cy="3.36" r="3.36" transform="translate(148.24 148.67)" fill="#eef5ff"/>
                <path id="Path_4649" data-name="Path 4649" d="M145.36,152.03a3.36,3.36,0,1,1-3.36-3.36A3.361,3.361,0,0,1,145.36,152.03Z" fill="#eef5ff"/>
                <path id="Path_4650" data-name="Path 4650" d="M135.75,152.03a3.36,3.36,0,1,1-3.36-3.36A3.361,3.361,0,0,1,135.75,152.03Z" fill="#eef5ff"/>
                <circle id="Ellipse_56" data-name="Ellipse 56" cx="3.36" cy="3.36" r="3.36" transform="translate(119.41 148.67)" fill="#eef5ff"/>
              </g>
              <g id="Group_2121" data-name="Group 2121">
                <path id="Path_4651" data-name="Path 4651" d="M154.97,184.93a3.36,3.36,0,1,1-3.36-3.36A3.361,3.361,0,0,1,154.97,184.93Z" fill="#eef5ff"/>
                <path id="Path_4652" data-name="Path 4652" d="M145.36,184.93a3.36,3.36,0,1,1-3.36-3.36A3.361,3.361,0,0,1,145.36,184.93Z" fill="#eef5ff"/>
                <path id="Path_4653" data-name="Path 4653" d="M135.75,184.93a3.36,3.36,0,1,1-3.36-3.36A3.361,3.361,0,0,1,135.75,184.93Z" fill="#eef5ff"/>
                <path id="Path_4654" data-name="Path 4654" d="M126.14,184.93a3.36,3.36,0,1,1-3.36-3.36A3.361,3.361,0,0,1,126.14,184.93Z" fill="#eef5ff"/>
              </g>
              <g id="Group_2122" data-name="Group 2122">
                <path id="Path_4655" data-name="Path 4655" d="M154.97,217.83a3.36,3.36,0,1,1-3.36-3.36A3.361,3.361,0,0,1,154.97,217.83Z" fill="#eef5ff"/>
                <path id="Path_4656" data-name="Path 4656" d="M145.36,217.83a3.36,3.36,0,1,1-3.36-3.36A3.361,3.361,0,0,1,145.36,217.83Z" fill="#eef5ff"/>
                <path id="Path_4657" data-name="Path 4657" d="M135.75,217.83a3.36,3.36,0,1,1-3.36-3.36A3.361,3.361,0,0,1,135.75,217.83Z" fill="#eef5ff"/>
                <path id="Path_4658" data-name="Path 4658" d="M126.14,217.83a3.36,3.36,0,1,1-3.36-3.36A3.361,3.361,0,0,1,126.14,217.83Z" fill="#eef5ff"/>
              </g>
              <g id="Group_2123" data-name="Group 2123">
                <path id="Path_4659" data-name="Path 4659" d="M154.97,250.73a3.36,3.36,0,1,1-3.36-3.36A3.361,3.361,0,0,1,154.97,250.73Z" fill="#eef5ff"/>
                <path id="Path_4660" data-name="Path 4660" d="M145.36,250.73a3.36,3.36,0,1,1-3.36-3.36A3.361,3.361,0,0,1,145.36,250.73Z" fill="#eef5ff"/>
                <path id="Path_4661" data-name="Path 4661" d="M135.75,250.73a3.36,3.36,0,1,1-3.36-3.36A3.361,3.361,0,0,1,135.75,250.73Z" fill="#eef5ff"/>
                <path id="Path_4662" data-name="Path 4662" d="M126.14,250.73a3.36,3.36,0,1,1-3.36-3.36A3.361,3.361,0,0,1,126.14,250.73Z" fill="#eef5ff"/>
              </g>
              <g id="Group_2124" data-name="Group 2124">
                <path id="Path_4663" data-name="Path 4663" d="M154.97,283.63a3.36,3.36,0,1,1-3.36-3.36A3.361,3.361,0,0,1,154.97,283.63Z" fill="#eef5ff"/>
                <path id="Path_4664" data-name="Path 4664" d="M145.36,283.63a3.36,3.36,0,1,1-3.36-3.36A3.361,3.361,0,0,1,145.36,283.63Z" fill="#eef5ff"/>
                <path id="Path_4665" data-name="Path 4665" d="M135.75,283.63a3.36,3.36,0,1,1-3.36-3.36A3.361,3.361,0,0,1,135.75,283.63Z" fill="#eef5ff"/>
                <path id="Path_4666" data-name="Path 4666" d="M126.14,283.63a3.36,3.36,0,1,1-3.36-3.36A3.361,3.361,0,0,1,126.14,283.63Z" fill="#eef5ff"/>
              </g>
              <g id="Group_2125" data-name="Group 2125">
                <circle id="Ellipse_57" data-name="Ellipse 57" cx="3.36" cy="3.36" r="3.36" transform="translate(148.24 313.16)" fill="#eef5ff"/>
                <path id="Path_4667" data-name="Path 4667" d="M145.36,316.52a3.36,3.36,0,1,1-3.36-3.36A3.361,3.361,0,0,1,145.36,316.52Z" fill="#eef5ff"/>
                <path id="Path_4668" data-name="Path 4668" d="M135.75,316.52a3.36,3.36,0,1,1-3.36-3.36A3.361,3.361,0,0,1,135.75,316.52Z" fill="#eef5ff"/>
                <circle id="Ellipse_58" data-name="Ellipse 58" cx="3.36" cy="3.36" r="3.36" transform="translate(119.41 313.16)" fill="#eef5ff"/>
              </g>
              <g id="Group_2126" data-name="Group 2126">
                <circle id="Ellipse_59" data-name="Ellipse 59" cx="3.36" cy="3.36" r="3.36" transform="translate(148.24 346.06)" fill="#eef5ff"/>
                <path id="Path_4669" data-name="Path 4669" d="M145.36,349.42a3.36,3.36,0,1,1-3.36-3.36A3.361,3.361,0,0,1,145.36,349.42Z" fill="#eef5ff"/>
                <path id="Path_4670" data-name="Path 4670" d="M135.75,349.42a3.36,3.36,0,1,1-3.36-3.36A3.361,3.361,0,0,1,135.75,349.42Z" fill="#eef5ff"/>
                <circle id="Ellipse_60" data-name="Ellipse 60" cx="3.36" cy="3.36" r="3.36" transform="translate(119.41 346.06)" fill="#eef5ff"/>
              </g>
              <circle id="Ellipse_61" data-name="Ellipse 61" cx="7.29" cy="7.29" r="7.29" transform="translate(98.13 111.84)" fill="#d1e3ff"/>
              <circle id="Ellipse_62" data-name="Ellipse 62" cx="7.29" cy="7.29" r="7.29" transform="translate(98.13 144.74)" fill="#d1e3ff"/>
              <circle id="Ellipse_63" data-name="Ellipse 63" cx="7.29" cy="7.29" r="7.29" transform="translate(97.047 190.963) rotate(-80.804)" fill="#d1e3ff"/>
              <circle id="Ellipse_64" data-name="Ellipse 64" cx="7.29" cy="7.29" r="7.29" transform="translate(97.047 223.861) rotate(-80.804)" fill="#d1e3ff"/>
              <circle id="Ellipse_65" data-name="Ellipse 65" cx="7.29" cy="7.29" r="7.29" transform="translate(95.908 246.771) rotate(-22.395)" fill="#d1e3ff"/>
              <circle id="Ellipse_66" data-name="Ellipse 66" cx="7.29" cy="7.29" r="7.29" transform="translate(95.909 279.671) rotate(-22.395)" fill="#d1e3ff"/>
              <circle id="Ellipse_67" data-name="Ellipse 67" cx="7.29" cy="7.29" r="7.29" transform="translate(98.13 309.23)" fill="#d1e3ff"/>
              <circle id="Ellipse_68" data-name="Ellipse 68" cx="7.29" cy="7.29" r="7.29" transform="translate(98.13 342.13)" fill="#d1e3ff"/>
            </g>
          </g>
          <g id="Group_2140" data-name="Group 2140">
            <g id="Group_2139" data-name="Group 2139">
              <g id="Group_2129" data-name="Group 2129">
                <rect id="Rectangle_348" data-name="Rectangle 348" width="117.31" height="13.81" transform="translate(275.37 368.59)" fill="#e3eeff"/>
                <rect id="Rectangle_349" data-name="Rectangle 349" width="19.54" height="13.81" transform="translate(412.216 382.4) rotate(180)" fill="#d1e3ff"/>
                <rect id="Rectangle_350" data-name="Rectangle 350" width="123.82" height="243.94" transform="translate(268.85 124.65)" fill="#eef5ff"/>
                <rect id="Rectangle_351" data-name="Rectangle 351" width="132.6" height="2.09" transform="translate(277.49 122.56)" fill="#e3eeff"/>
                <rect id="Rectangle_352" data-name="Rectangle 352" width="26.06" height="243.94" transform="translate(418.733 368.589) rotate(180)" fill="#e3eeff"/>
              </g>
              <g id="Group_2130" data-name="Group 2130">
                <rect id="Rectangle_353" data-name="Rectangle 353" width="117.69" height="26.73" transform="translate(389.612 154.3) rotate(180)" fill="#e3eeff"/>
                <rect id="Rectangle_354" data-name="Rectangle 354" width="117.69" height="26.73" transform="translate(389.612 365.518) rotate(180)" fill="#e3eeff"/>
                <rect id="Rectangle_355" data-name="Rectangle 355" width="117.69" height="26.73" transform="translate(389.612 335.34) rotate(180)" fill="#e3eeff"/>
                <rect id="Rectangle_356" data-name="Rectangle 356" width="117.69" height="26.73" transform="translate(389.612 305.172) rotate(180)" fill="#e3eeff"/>
                <rect id="Rectangle_357" data-name="Rectangle 357" width="117.69" height="26.73" transform="translate(389.612 274.993) rotate(180)" fill="#e3eeff"/>
                <rect id="Rectangle_358" data-name="Rectangle 358" width="117.69" height="26.73" transform="translate(389.612 244.825) rotate(180)" fill="#e3eeff"/>
                <rect id="Rectangle_359" data-name="Rectangle 359" width="117.69" height="26.73" transform="translate(389.612 214.647) rotate(180)" fill="#e3eeff"/>
                <rect id="Rectangle_360" data-name="Rectangle 360" width="117.69" height="26.73" transform="translate(389.612 184.479) rotate(180)" fill="#e3eeff"/>
              </g>
              <path id="Path_4671" data-name="Path 4671" d="M279.66,150.48h56.66a3.986,3.986,0,0,0,3.97-3.97V135.35a3.986,3.986,0,0,0-3.97-3.97H279.66a3.986,3.986,0,0,0-3.97,3.97v11.16A3.986,3.986,0,0,0,279.66,150.48Z" fill="#d1e3ff"/>
              <path id="Path_4672" data-name="Path 4672" d="M283.9,142.18v-2.5a1.186,1.186,0,0,0-1.19-1.19h-2.68a1.186,1.186,0,0,0-1.19,1.19v2.5a1.186,1.186,0,0,0,1.19,1.19h2.68A1.193,1.193,0,0,0,283.9,142.18Z" fill="#eef5ff"/>
              <path id="Path_4673" data-name="Path 4673" d="M279.66,180.66h56.66a3.986,3.986,0,0,0,3.97-3.97V165.53a3.986,3.986,0,0,0-3.97-3.97H279.66a3.986,3.986,0,0,0-3.97,3.97v11.16A3.993,3.993,0,0,0,279.66,180.66Z" fill="#d1e3ff"/>
              <path id="Path_4674" data-name="Path 4674" d="M283.9,172.36v-2.5a1.186,1.186,0,0,0-1.19-1.19h-2.68a1.186,1.186,0,0,0-1.19,1.19v2.5a1.186,1.186,0,0,0,1.19,1.19h2.68A1.193,1.193,0,0,0,283.9,172.36Z" fill="#eef5ff"/>
              <path id="Path_4675" data-name="Path 4675" d="M279.66,210.83h56.66a3.986,3.986,0,0,0,3.97-3.97V195.7a3.986,3.986,0,0,0-3.97-3.97H279.66a3.986,3.986,0,0,0-3.97,3.97v11.16A3.986,3.986,0,0,0,279.66,210.83Z" fill="#d1e3ff"/>
              <path id="Path_4676" data-name="Path 4676" d="M283.9,202.53v-2.5a1.186,1.186,0,0,0-1.19-1.19h-2.68a1.186,1.186,0,0,0-1.19,1.19v2.5a1.186,1.186,0,0,0,1.19,1.19h2.68A1.193,1.193,0,0,0,283.9,202.53Z" fill="#eef5ff"/>
              <path id="Path_4677" data-name="Path 4677" d="M279.66,241h56.66a3.986,3.986,0,0,0,3.97-3.97V225.87a3.986,3.986,0,0,0-3.97-3.97H279.66a3.986,3.986,0,0,0-3.97,3.97v11.16A3.986,3.986,0,0,0,279.66,241Z" fill="#d1e3ff"/>
              <path id="Path_4678" data-name="Path 4678" d="M283.9,232.71v-2.5a1.186,1.186,0,0,0-1.19-1.19h-2.68a1.186,1.186,0,0,0-1.19,1.19v2.5a1.186,1.186,0,0,0,1.19,1.19h2.68A1.2,1.2,0,0,0,283.9,232.71Z" fill="#eef5ff"/>
              <path id="Path_4679" data-name="Path 4679" d="M279.66,271.18h56.66a3.986,3.986,0,0,0,3.97-3.97V256.05a3.986,3.986,0,0,0-3.97-3.97H279.66a3.986,3.986,0,0,0-3.97,3.97v11.16A3.993,3.993,0,0,0,279.66,271.18Z" fill="#d1e3ff"/>
              <path id="Path_4680" data-name="Path 4680" d="M283.9,262.88v-2.5a1.186,1.186,0,0,0-1.19-1.19h-2.68a1.186,1.186,0,0,0-1.19,1.19v2.5a1.186,1.186,0,0,0,1.19,1.19h2.68A1.193,1.193,0,0,0,283.9,262.88Z" fill="#eef5ff"/>
              <path id="Path_4681" data-name="Path 4681" d="M279.66,301.35h56.66a3.986,3.986,0,0,0,3.97-3.97V286.22a3.986,3.986,0,0,0-3.97-3.97H279.66a3.986,3.986,0,0,0-3.97,3.97v11.16A3.986,3.986,0,0,0,279.66,301.35Z" fill="#d1e3ff"/>
              <path id="Path_4682" data-name="Path 4682" d="M283.9,293.06v-2.5a1.186,1.186,0,0,0-1.19-1.19h-2.68a1.186,1.186,0,0,0-1.19,1.19v2.5a1.186,1.186,0,0,0,1.19,1.19h2.68A1.2,1.2,0,0,0,283.9,293.06Z" fill="#eef5ff"/>
              <path id="Path_4683" data-name="Path 4683" d="M279.66,331.53h56.66a3.986,3.986,0,0,0,3.97-3.97V316.4a3.986,3.986,0,0,0-3.97-3.97H279.66a3.986,3.986,0,0,0-3.97,3.97v11.16A3.993,3.993,0,0,0,279.66,331.53Z" fill="#d1e3ff"/>
              <path id="Path_4684" data-name="Path 4684" d="M283.9,323.23v-2.5a1.186,1.186,0,0,0-1.19-1.19h-2.68a1.186,1.186,0,0,0-1.19,1.19v2.5a1.186,1.186,0,0,0,1.19,1.19h2.68A1.193,1.193,0,0,0,283.9,323.23Z" fill="#eef5ff"/>
              <path id="Path_4685" data-name="Path 4685" d="M279.66,361.7h56.66a3.986,3.986,0,0,0,3.97-3.97V346.57a3.986,3.986,0,0,0-3.97-3.97H279.66a3.986,3.986,0,0,0-3.97,3.97v11.16A3.986,3.986,0,0,0,279.66,361.7Z" fill="#d1e3ff"/>
              <path id="Path_4686" data-name="Path 4686" d="M283.9,353.4v-2.5a1.186,1.186,0,0,0-1.19-1.19h-2.68a1.186,1.186,0,0,0-1.19,1.19v2.5a1.186,1.186,0,0,0,1.19,1.19h2.68A1.193,1.193,0,0,0,283.9,353.4Z" fill="#eef5ff"/>
              <path id="Path_4687" data-name="Path 4687" d="M291.69,142.18v-2.5a1.186,1.186,0,0,0-1.19-1.19h-2.68a1.186,1.186,0,0,0-1.19,1.19v2.5a1.186,1.186,0,0,0,1.19,1.19h2.68A1.193,1.193,0,0,0,291.69,142.18Z" fill="#eef5ff"/>
              <path id="Path_4688" data-name="Path 4688" d="M291.69,172.36v-2.5a1.186,1.186,0,0,0-1.19-1.19h-2.68a1.186,1.186,0,0,0-1.19,1.19v2.5a1.186,1.186,0,0,0,1.19,1.19h2.68A1.193,1.193,0,0,0,291.69,172.36Z" fill="#eef5ff"/>
              <path id="Path_4689" data-name="Path 4689" d="M291.69,202.53v-2.5a1.186,1.186,0,0,0-1.19-1.19h-2.68a1.186,1.186,0,0,0-1.19,1.19v2.5a1.186,1.186,0,0,0,1.19,1.19h2.68A1.193,1.193,0,0,0,291.69,202.53Z" fill="#eef5ff"/>
              <path id="Path_4690" data-name="Path 4690" d="M291.69,232.71v-2.5a1.186,1.186,0,0,0-1.19-1.19h-2.68a1.186,1.186,0,0,0-1.19,1.19v2.5a1.186,1.186,0,0,0,1.19,1.19h2.68A1.2,1.2,0,0,0,291.69,232.71Z" fill="#eef5ff"/>
              <path id="Path_4691" data-name="Path 4691" d="M291.69,262.88v-2.5a1.186,1.186,0,0,0-1.19-1.19h-2.68a1.186,1.186,0,0,0-1.19,1.19v2.5a1.186,1.186,0,0,0,1.19,1.19h2.68A1.193,1.193,0,0,0,291.69,262.88Z" fill="#eef5ff"/>
              <path id="Path_4692" data-name="Path 4692" d="M291.69,293.06v-2.5a1.186,1.186,0,0,0-1.19-1.19h-2.68a1.186,1.186,0,0,0-1.19,1.19v2.5a1.186,1.186,0,0,0,1.19,1.19h2.68A1.2,1.2,0,0,0,291.69,293.06Z" fill="#eef5ff"/>
              <path id="Path_4693" data-name="Path 4693" d="M291.69,323.23v-2.5a1.186,1.186,0,0,0-1.19-1.19h-2.68a1.186,1.186,0,0,0-1.19,1.19v2.5a1.186,1.186,0,0,0,1.19,1.19h2.68A1.193,1.193,0,0,0,291.69,323.23Z" fill="#eef5ff"/>
              <path id="Path_4694" data-name="Path 4694" d="M291.69,353.4v-2.5a1.186,1.186,0,0,0-1.19-1.19h-2.68a1.186,1.186,0,0,0-1.19,1.19v2.5a1.186,1.186,0,0,0,1.19,1.19h2.68A1.193,1.193,0,0,0,291.69,353.4Z" fill="#eef5ff"/>
              <path id="Path_4695" data-name="Path 4695" d="M299.48,142.18v-2.5a1.186,1.186,0,0,0-1.19-1.19h-2.68a1.186,1.186,0,0,0-1.19,1.19v2.5a1.186,1.186,0,0,0,1.19,1.19h2.68A1.186,1.186,0,0,0,299.48,142.18Z" fill="#eef5ff"/>
              <path id="Path_4696" data-name="Path 4696" d="M299.48,172.36v-2.5a1.186,1.186,0,0,0-1.19-1.19h-2.68a1.186,1.186,0,0,0-1.19,1.19v2.5a1.186,1.186,0,0,0,1.19,1.19h2.68A1.186,1.186,0,0,0,299.48,172.36Z" fill="#eef5ff"/>
              <path id="Path_4697" data-name="Path 4697" d="M299.48,202.53v-2.5a1.186,1.186,0,0,0-1.19-1.19h-2.68a1.186,1.186,0,0,0-1.19,1.19v2.5a1.186,1.186,0,0,0,1.19,1.19h2.68A1.186,1.186,0,0,0,299.48,202.53Z" fill="#eef5ff"/>
              <path id="Path_4698" data-name="Path 4698" d="M299.48,232.71v-2.5a1.186,1.186,0,0,0-1.19-1.19h-2.68a1.186,1.186,0,0,0-1.19,1.19v2.5a1.186,1.186,0,0,0,1.19,1.19h2.68A1.193,1.193,0,0,0,299.48,232.71Z" fill="#eef5ff"/>
              <path id="Path_4699" data-name="Path 4699" d="M299.48,262.88v-2.5a1.186,1.186,0,0,0-1.19-1.19h-2.68a1.186,1.186,0,0,0-1.19,1.19v2.5a1.186,1.186,0,0,0,1.19,1.19h2.68A1.186,1.186,0,0,0,299.48,262.88Z" fill="#eef5ff"/>
              <path id="Path_4700" data-name="Path 4700" d="M299.48,293.06v-2.5a1.186,1.186,0,0,0-1.19-1.19h-2.68a1.186,1.186,0,0,0-1.19,1.19v2.5a1.186,1.186,0,0,0,1.19,1.19h2.68A1.193,1.193,0,0,0,299.48,293.06Z" fill="#eef5ff"/>
              <path id="Path_4701" data-name="Path 4701" d="M299.48,323.23v-2.5a1.186,1.186,0,0,0-1.19-1.19h-2.68a1.186,1.186,0,0,0-1.19,1.19v2.5a1.186,1.186,0,0,0,1.19,1.19h2.68A1.186,1.186,0,0,0,299.48,323.23Z" fill="#eef5ff"/>
              <path id="Path_4702" data-name="Path 4702" d="M299.48,353.4v-2.5a1.186,1.186,0,0,0-1.19-1.19h-2.68a1.186,1.186,0,0,0-1.19,1.19v2.5a1.186,1.186,0,0,0,1.19,1.19h2.68A1.186,1.186,0,0,0,299.48,353.4Z" fill="#eef5ff"/>
              <path id="Path_4703" data-name="Path 4703" d="M307.27,142.18v-2.5a1.186,1.186,0,0,0-1.19-1.19H303.4a1.186,1.186,0,0,0-1.19,1.19v2.5a1.186,1.186,0,0,0,1.19,1.19h2.68A1.186,1.186,0,0,0,307.27,142.18Z" fill="#eef5ff"/>
              <path id="Path_4704" data-name="Path 4704" d="M307.27,172.36v-2.5a1.186,1.186,0,0,0-1.19-1.19H303.4a1.186,1.186,0,0,0-1.19,1.19v2.5a1.186,1.186,0,0,0,1.19,1.19h2.68A1.186,1.186,0,0,0,307.27,172.36Z" fill="#eef5ff"/>
              <path id="Path_4705" data-name="Path 4705" d="M307.27,202.53v-2.5a1.186,1.186,0,0,0-1.19-1.19H303.4a1.186,1.186,0,0,0-1.19,1.19v2.5a1.186,1.186,0,0,0,1.19,1.19h2.68A1.186,1.186,0,0,0,307.27,202.53Z" fill="#eef5ff"/>
              <path id="Path_4706" data-name="Path 4706" d="M307.27,232.71v-2.5a1.186,1.186,0,0,0-1.19-1.19H303.4a1.186,1.186,0,0,0-1.19,1.19v2.5a1.186,1.186,0,0,0,1.19,1.19h2.68A1.193,1.193,0,0,0,307.27,232.71Z" fill="#eef5ff"/>
              <path id="Path_4707" data-name="Path 4707" d="M307.27,262.88v-2.5a1.186,1.186,0,0,0-1.19-1.19H303.4a1.186,1.186,0,0,0-1.19,1.19v2.5a1.186,1.186,0,0,0,1.19,1.19h2.68A1.186,1.186,0,0,0,307.27,262.88Z" fill="#eef5ff"/>
              <path id="Path_4708" data-name="Path 4708" d="M307.27,293.06v-2.5a1.186,1.186,0,0,0-1.19-1.19H303.4a1.186,1.186,0,0,0-1.19,1.19v2.5a1.186,1.186,0,0,0,1.19,1.19h2.68A1.193,1.193,0,0,0,307.27,293.06Z" fill="#eef5ff"/>
              <path id="Path_4709" data-name="Path 4709" d="M307.27,323.23v-2.5a1.186,1.186,0,0,0-1.19-1.19H303.4a1.186,1.186,0,0,0-1.19,1.19v2.5a1.186,1.186,0,0,0,1.19,1.19h2.68A1.186,1.186,0,0,0,307.27,323.23Z" fill="#eef5ff"/>
              <path id="Path_4710" data-name="Path 4710" d="M307.27,353.4v-2.5a1.186,1.186,0,0,0-1.19-1.19H303.4a1.186,1.186,0,0,0-1.19,1.19v2.5a1.186,1.186,0,0,0,1.19,1.19h2.68A1.186,1.186,0,0,0,307.27,353.4Z" fill="#eef5ff"/>
              <g id="Group_2131" data-name="Group 2131">
                <path id="Path_4711" data-name="Path 4711" d="M346.8,140.94a3.192,3.192,0,1,0,3.19-3.08A3.138,3.138,0,0,0,346.8,140.94Z" fill="#eef5ff"/>
                <path id="Path_4712" data-name="Path 4712" d="M355.93,140.94a3.192,3.192,0,1,0,3.19-3.08A3.138,3.138,0,0,0,355.93,140.94Z" fill="#eef5ff"/>
                <path id="Path_4713" data-name="Path 4713" d="M365.05,140.94a3.192,3.192,0,1,0,3.19-3.08A3.138,3.138,0,0,0,365.05,140.94Z" fill="#eef5ff"/>
                <path id="Path_4714" data-name="Path 4714" d="M374.18,140.94a3.192,3.192,0,1,0,3.19-3.08A3.138,3.138,0,0,0,374.18,140.94Z" fill="#eef5ff"/>
              </g>
              <g id="Group_2132" data-name="Group 2132">
                <path id="Path_4715" data-name="Path 4715" d="M346.8,171.11a3.192,3.192,0,1,0,3.19-3.08A3.138,3.138,0,0,0,346.8,171.11Z" fill="#eef5ff"/>
                <path id="Path_4716" data-name="Path 4716" d="M355.93,171.11a3.192,3.192,0,1,0,3.19-3.08A3.138,3.138,0,0,0,355.93,171.11Z" fill="#eef5ff"/>
                <path id="Path_4717" data-name="Path 4717" d="M365.05,171.11a3.192,3.192,0,1,0,3.19-3.08A3.138,3.138,0,0,0,365.05,171.11Z" fill="#eef5ff"/>
                <path id="Path_4718" data-name="Path 4718" d="M374.18,171.11a3.192,3.192,0,1,0,3.19-3.08A3.138,3.138,0,0,0,374.18,171.11Z" fill="#eef5ff"/>
              </g>
              <g id="Group_2133" data-name="Group 2133">
                <path id="Path_4719" data-name="Path 4719" d="M346.8,201.28a3.192,3.192,0,1,0,3.19-3.08A3.138,3.138,0,0,0,346.8,201.28Z" fill="#eef5ff"/>
                <path id="Path_4720" data-name="Path 4720" d="M355.93,201.28a3.192,3.192,0,1,0,3.19-3.08A3.138,3.138,0,0,0,355.93,201.28Z" fill="#eef5ff"/>
                <path id="Path_4721" data-name="Path 4721" d="M365.05,201.28a3.192,3.192,0,1,0,3.19-3.08A3.138,3.138,0,0,0,365.05,201.28Z" fill="#eef5ff"/>
                <path id="Path_4722" data-name="Path 4722" d="M374.18,201.28a3.192,3.192,0,1,0,3.19-3.08A3.138,3.138,0,0,0,374.18,201.28Z" fill="#eef5ff"/>
              </g>
              <g id="Group_2134" data-name="Group 2134">
                <path id="Path_4723" data-name="Path 4723" d="M346.8,231.46a3.192,3.192,0,1,0,3.19-3.08A3.138,3.138,0,0,0,346.8,231.46Z" fill="#eef5ff"/>
                <path id="Path_4724" data-name="Path 4724" d="M355.93,231.46a3.192,3.192,0,1,0,3.19-3.08A3.138,3.138,0,0,0,355.93,231.46Z" fill="#eef5ff"/>
                <path id="Path_4725" data-name="Path 4725" d="M365.05,231.46a3.192,3.192,0,1,0,3.19-3.08A3.138,3.138,0,0,0,365.05,231.46Z" fill="#eef5ff"/>
                <path id="Path_4726" data-name="Path 4726" d="M374.18,231.46a3.192,3.192,0,1,0,3.19-3.08A3.138,3.138,0,0,0,374.18,231.46Z" fill="#eef5ff"/>
              </g>
              <g id="Group_2135" data-name="Group 2135">
                <path id="Path_4727" data-name="Path 4727" d="M346.8,261.63a3.192,3.192,0,1,0,3.19-3.08A3.138,3.138,0,0,0,346.8,261.63Z" fill="#eef5ff"/>
                <path id="Path_4728" data-name="Path 4728" d="M355.93,261.63a3.192,3.192,0,1,0,3.19-3.08A3.138,3.138,0,0,0,355.93,261.63Z" fill="#eef5ff"/>
                <path id="Path_4729" data-name="Path 4729" d="M365.05,261.63a3.192,3.192,0,1,0,3.19-3.08A3.138,3.138,0,0,0,365.05,261.63Z" fill="#eef5ff"/>
                <path id="Path_4730" data-name="Path 4730" d="M374.18,261.63a3.192,3.192,0,1,0,3.19-3.08A3.138,3.138,0,0,0,374.18,261.63Z" fill="#eef5ff"/>
              </g>
              <g id="Group_2136" data-name="Group 2136">
                <path id="Path_4731" data-name="Path 4731" d="M346.8,291.81a3.192,3.192,0,1,0,3.19-3.08A3.138,3.138,0,0,0,346.8,291.81Z" fill="#eef5ff"/>
                <path id="Path_4732" data-name="Path 4732" d="M355.93,291.81a3.192,3.192,0,1,0,3.19-3.08A3.138,3.138,0,0,0,355.93,291.81Z" fill="#eef5ff"/>
                <path id="Path_4733" data-name="Path 4733" d="M365.05,291.81a3.192,3.192,0,1,0,3.19-3.08A3.138,3.138,0,0,0,365.05,291.81Z" fill="#eef5ff"/>
                <path id="Path_4734" data-name="Path 4734" d="M374.18,291.81a3.192,3.192,0,1,0,3.19-3.08A3.138,3.138,0,0,0,374.18,291.81Z" fill="#eef5ff"/>
              </g>
              <g id="Group_2137" data-name="Group 2137">
                <path id="Path_4735" data-name="Path 4735" d="M346.8,321.98a3.192,3.192,0,1,0,3.19-3.08A3.138,3.138,0,0,0,346.8,321.98Z" fill="#eef5ff"/>
                <path id="Path_4736" data-name="Path 4736" d="M355.93,321.98a3.192,3.192,0,1,0,3.19-3.08A3.138,3.138,0,0,0,355.93,321.98Z" fill="#eef5ff"/>
                <path id="Path_4737" data-name="Path 4737" d="M365.05,321.98a3.192,3.192,0,1,0,3.19-3.08A3.138,3.138,0,0,0,365.05,321.98Z" fill="#eef5ff"/>
                <path id="Path_4738" data-name="Path 4738" d="M374.18,321.98a3.192,3.192,0,1,0,3.19-3.08A3.138,3.138,0,0,0,374.18,321.98Z" fill="#eef5ff"/>
              </g>
              <g id="Group_2138" data-name="Group 2138">
                <path id="Path_4739" data-name="Path 4739" d="M346.8,352.15a3.192,3.192,0,1,0,3.19-3.08A3.138,3.138,0,0,0,346.8,352.15Z" fill="#eef5ff"/>
                <path id="Path_4740" data-name="Path 4740" d="M355.93,352.15a3.192,3.192,0,1,0,3.19-3.08A3.138,3.138,0,0,0,355.93,352.15Z" fill="#eef5ff"/>
                <path id="Path_4741" data-name="Path 4741" d="M365.05,352.15a3.192,3.192,0,1,0,3.19-3.08A3.138,3.138,0,0,0,365.05,352.15Z" fill="#eef5ff"/>
                <path id="Path_4742" data-name="Path 4742" d="M374.18,352.15a3.192,3.192,0,1,0,3.19-3.08A3.138,3.138,0,0,0,374.18,352.15Z" fill="#eef5ff"/>
              </g>
            </g>
          </g>
        </g>
      </g>
    </g>
    <g id="Objects">
      <g id="Group_2165" data-name="Group 2165">
        <ellipse id="Ellipse_69" data-name="Ellipse 69" cx="193.89" cy="11.32" rx="193.89" ry="11.32" transform="translate(56.11 404.92)" fill="#f0f6ff"/>
        <g id="Group_2164" data-name="Group 2164">
          <g id="Group_2157" data-name="Group 2157">
            <g id="Group_2155" data-name="Group 2155">
              <g id="Group_2145" data-name="Group 2145">
                <rect id="Rectangle_361" data-name="Rectangle 361" width="116.93" height="13.34" transform="translate(118.88 403.8)" fill="#0053cc"/>
                <g id="Group_2143" data-name="Group 2143" opacity="0.2">
                  <rect id="Rectangle_362" data-name="Rectangle 362" width="2.93" height="9.55" transform="translate(121.92 405.7)" fill="#0f264c"/>
                  <rect id="Rectangle_363" data-name="Rectangle 363" width="2.93" height="9.55" transform="translate(127.06 405.7)" fill="#0f264c"/>
                  <rect id="Rectangle_364" data-name="Rectangle 364" width="2.93" height="9.55" transform="translate(132.21 405.7)" fill="#0f264c"/>
                  <rect id="Rectangle_365" data-name="Rectangle 365" width="2.93" height="9.55" transform="translate(137.35 405.7)" fill="#0f264c"/>
                  <rect id="Rectangle_366" data-name="Rectangle 366" width="2.93" height="9.55" transform="translate(142.49 405.7)" fill="#0f264c"/>
                  <rect id="Rectangle_367" data-name="Rectangle 367" width="2.93" height="9.55" transform="translate(147.63 405.7)" fill="#0f264c"/>
                  <rect id="Rectangle_368" data-name="Rectangle 368" width="2.93" height="9.55" transform="translate(152.78 405.7)" fill="#0f264c"/>
                  <rect id="Rectangle_369" data-name="Rectangle 369" width="2.93" height="9.55" transform="translate(157.92 405.7)" fill="#0f264c"/>
                  <rect id="Rectangle_370" data-name="Rectangle 370" width="2.93" height="9.55" transform="translate(163.06 405.7)" fill="#0f264c"/>
                  <rect id="Rectangle_371" data-name="Rectangle 371" width="2.93" height="9.55" transform="translate(168.2 405.7)" fill="#0f264c"/>
                  <rect id="Rectangle_372" data-name="Rectangle 372" width="2.93" height="9.55" transform="translate(173.34 405.7)" fill="#0f264c"/>
                  <rect id="Rectangle_373" data-name="Rectangle 373" width="2.93" height="9.55" transform="translate(178.49 405.7)" fill="#0f264c"/>
                  <rect id="Rectangle_374" data-name="Rectangle 374" width="2.93" height="9.55" transform="translate(183.63 405.7)" fill="#0f264c"/>
                  <rect id="Rectangle_375" data-name="Rectangle 375" width="2.93" height="9.55" transform="translate(188.77 405.7)" fill="#0f264c"/>
                  <rect id="Rectangle_376" data-name="Rectangle 376" width="2.93" height="9.55" transform="translate(193.91 405.7)" fill="#0f264c"/>
                  <rect id="Rectangle_377" data-name="Rectangle 377" width="2.93" height="9.55" transform="translate(199.06 405.7)" fill="#0f264c"/>
                  <rect id="Rectangle_378" data-name="Rectangle 378" width="2.93" height="9.55" transform="translate(204.2 405.7)" fill="#0f264c"/>
                  <rect id="Rectangle_379" data-name="Rectangle 379" width="2.93" height="9.55" transform="translate(209.34 405.7)" fill="#0f264c"/>
                  <rect id="Rectangle_380" data-name="Rectangle 380" width="2.93" height="9.55" transform="translate(214.48 405.7)" fill="#0f264c"/>
                  <rect id="Rectangle_381" data-name="Rectangle 381" width="2.93" height="9.55" transform="translate(219.63 405.7)" fill="#0f264c"/>
                  <rect id="Rectangle_382" data-name="Rectangle 382" width="2.93" height="9.55" transform="translate(224.77 405.7)" fill="#0f264c"/>
                  <rect id="Rectangle_383" data-name="Rectangle 383" width="2.93" height="9.55" transform="translate(229.91 405.7)" fill="#0f264c"/>
                </g>
                <rect id="Rectangle_384" data-name="Rectangle 384" width="18.24" height="13.34" transform="translate(254.059 417.146) rotate(180)" fill="#0050af"/>
                <rect id="Rectangle_385" data-name="Rectangle 385" width="123.02" height="235.75" transform="translate(112.8 168.05)" fill="#4ea4f9"/>
                <rect id="Rectangle_386" data-name="Rectangle 386" width="131.21" height="2.02" transform="translate(120.86 166.03)" fill="#0d6ab7"/>
                <g id="Group_2144" data-name="Group 2144">
                  <rect id="Rectangle_387" data-name="Rectangle 387" width="1" height="9.93" transform="translate(107.92 277.9)" fill="#197bdd"/>
                  <rect id="Rectangle_388" data-name="Rectangle 388" width="1" height="25.83" transform="translate(107.92 291.17)" fill="#197bdd"/>
                </g>
                <rect id="Rectangle_389" data-name="Rectangle 389" width="24.33" height="235.75" transform="translate(260.144 403.801) rotate(180)" fill="#197bdd"/>
              </g>
              <g id="Group_2146" data-name="Group 2146">
                <path id="Path_4743" data-name="Path 4743" d="M229.68,253.81H118.93a3.265,3.265,0,0,1-3.27-3.27V233.68a3.265,3.265,0,0,1,3.27-3.27H229.69a3.265,3.265,0,0,1,3.27,3.27v16.86A3.28,3.28,0,0,1,229.68,253.81Z" fill="#0d6ab7" opacity="0.6"/>
                <path id="Path_4744" data-name="Path 4744" d="M223.08,238.96l-4.73-9.77v25.83h14.6V242.1H228.1A5.54,5.54,0,0,1,223.08,238.96Z" fill="#197bdd"/>
                <rect id="Rectangle_390" data-name="Rectangle 390" width="117.29" height="25.83" transform="translate(115.66 170.87)" fill="#2b97ef"/>
                <rect id="Rectangle_391" data-name="Rectangle 391" width="117.29" height="25.83" transform="translate(115.66 375)" fill="#2b97ef"/>
                <rect id="Rectangle_392" data-name="Rectangle 392" width="117.29" height="25.83" transform="translate(115.66 345.84)" fill="#2b97ef"/>
                <rect id="Rectangle_393" data-name="Rectangle 393" width="117.29" height="25.83" transform="translate(115.66 316.68)" fill="#2b97ef"/>
                <rect id="Rectangle_394" data-name="Rectangle 394" width="117.29" height="25.83" transform="translate(115.66 287.52)" fill="#2b97ef"/>
                <rect id="Rectangle_395" data-name="Rectangle 395" width="117.29" height="25.83" transform="translate(115.66 258.36)" fill="#2b97ef"/>
                <rect id="Rectangle_396" data-name="Rectangle 396" width="117.29" height="25.83" transform="translate(101.06 229.2)" fill="#2b97ef"/>
                <rect id="Rectangle_397" data-name="Rectangle 397" width="117.29" height="25.83" transform="translate(115.66 200.03)" fill="#2b97ef"/>
              </g>
              <path id="Path_4745" data-name="Path 4745" d="M225.65,193.02h-44.6a3.786,3.786,0,0,1-3.77-3.77V178.33a3.786,3.786,0,0,1,3.77-3.77h44.6a3.786,3.786,0,0,1,3.77,3.77v10.92A3.779,3.779,0,0,1,225.65,193.02Z" fill="#197bdd"/>
              <path id="Path_4746" data-name="Path 4746" d="M204.91,184.55v-1.52a1.6,1.6,0,0,1,1.6-1.6h14.45a1.6,1.6,0,0,1,1.6,1.6v1.52a1.6,1.6,0,0,1-1.6,1.6H206.5A1.6,1.6,0,0,1,204.91,184.55Z" fill="#fff" opacity="0.2"/>
              <path id="Path_4747" data-name="Path 4747" d="M225.65,222.18h-44.6a3.786,3.786,0,0,1-3.77-3.77V207.49a3.786,3.786,0,0,1,3.77-3.77h44.6a3.786,3.786,0,0,1,3.77,3.77v10.92A3.779,3.779,0,0,1,225.65,222.18Z" fill="#197bdd"/>
              <path id="Path_4748" data-name="Path 4748" d="M204.91,213.71v-1.52a1.6,1.6,0,0,1,1.6-1.6h14.45a1.6,1.6,0,0,1,1.6,1.6v1.52a1.6,1.6,0,0,1-1.6,1.6H206.5A1.6,1.6,0,0,1,204.91,213.71Z" fill="#fff" opacity="0.2"/>
              <path id="Path_4749" data-name="Path 4749" d="M211.05,251.34h-44.6a3.786,3.786,0,0,1-3.77-3.77V236.65a3.786,3.786,0,0,1,3.77-3.77h44.6a3.786,3.786,0,0,1,3.77,3.77v10.92A3.779,3.779,0,0,1,211.05,251.34Z" fill="#197bdd"/>
              <path id="Path_4750" data-name="Path 4750" d="M190.3,242.87v-1.52a1.6,1.6,0,0,1,1.6-1.6h14.45a1.6,1.6,0,0,1,1.6,1.6v1.52a1.6,1.6,0,0,1-1.6,1.6H191.9A1.6,1.6,0,0,1,190.3,242.87Z" fill="#fff" opacity="0.2"/>
              <path id="Path_4751" data-name="Path 4751" d="M225.65,280.5h-44.6a3.786,3.786,0,0,1-3.77-3.77V265.81a3.786,3.786,0,0,1,3.77-3.77h44.6a3.786,3.786,0,0,1,3.77,3.77v10.92A3.779,3.779,0,0,1,225.65,280.5Z" fill="#197bdd"/>
              <path id="Path_4752" data-name="Path 4752" d="M204.91,272.03v-1.52a1.6,1.6,0,0,1,1.6-1.6h14.45a1.6,1.6,0,0,1,1.6,1.6v1.52a1.6,1.6,0,0,1-1.6,1.6H206.5A1.6,1.6,0,0,1,204.91,272.03Z" fill="#fff" opacity="0.2"/>
              <path id="Path_4753" data-name="Path 4753" d="M225.65,309.66h-44.6a3.786,3.786,0,0,1-3.77-3.77V294.97a3.786,3.786,0,0,1,3.77-3.77h44.6a3.786,3.786,0,0,1,3.77,3.77v10.92A3.779,3.779,0,0,1,225.65,309.66Z" fill="#197bdd"/>
              <path id="Path_4754" data-name="Path 4754" d="M204.91,301.19v-1.52a1.6,1.6,0,0,1,1.6-1.6h14.45a1.6,1.6,0,0,1,1.6,1.6v1.52a1.6,1.6,0,0,1-1.6,1.6H206.5A1.59,1.59,0,0,1,204.91,301.19Z" fill="#fff" opacity="0.2"/>
              <path id="Path_4755" data-name="Path 4755" d="M225.65,338.82h-44.6a3.786,3.786,0,0,1-3.77-3.77V324.13a3.786,3.786,0,0,1,3.77-3.77h44.6a3.786,3.786,0,0,1,3.77,3.77v10.92A3.773,3.773,0,0,1,225.65,338.82Z" fill="#197bdd"/>
              <path id="Path_4756" data-name="Path 4756" d="M204.91,330.35v-1.52a1.6,1.6,0,0,1,1.6-1.6h14.45a1.6,1.6,0,0,1,1.6,1.6v1.52a1.6,1.6,0,0,1-1.6,1.6H206.5A1.59,1.59,0,0,1,204.91,330.35Z" fill="#fff" opacity="0.2"/>
              <path id="Path_4757" data-name="Path 4757" d="M225.65,367.98h-44.6a3.786,3.786,0,0,1-3.77-3.77V353.3a3.786,3.786,0,0,1,3.77-3.77h44.6a3.786,3.786,0,0,1,3.77,3.77v10.92A3.771,3.771,0,0,1,225.65,367.98Z" fill="#197bdd"/>
              <path id="Path_4758" data-name="Path 4758" d="M204.91,359.51V358a1.6,1.6,0,0,1,1.6-1.6h14.45a1.6,1.6,0,0,1,1.6,1.6v1.52a1.6,1.6,0,0,1-1.6,1.6H206.5A1.6,1.6,0,0,1,204.91,359.51Z" fill="#fff" opacity="0.2"/>
              <path id="Path_4759" data-name="Path 4759" d="M225.65,397.14h-44.6a3.786,3.786,0,0,1-3.77-3.77V382.45a3.786,3.786,0,0,1,3.77-3.77h44.6a3.786,3.786,0,0,1,3.77,3.77v10.92A3.773,3.773,0,0,1,225.65,397.14Z" fill="#197bdd"/>
              <path id="Path_4760" data-name="Path 4760" d="M204.91,388.68v-1.52a1.6,1.6,0,0,1,1.6-1.6h14.45a1.6,1.6,0,0,1,1.6,1.6v1.52a1.6,1.6,0,0,1-1.6,1.6H206.5A1.6,1.6,0,0,1,204.91,388.68Z" fill="#fff" opacity="0.2"/>
              <g id="Group_2147" data-name="Group 2147">
                <circle id="Ellipse_70" data-name="Ellipse 70" cx="2.98" cy="2.98" r="2.98" transform="translate(165.24 180.81)" fill="#197bdd"/>
                <circle id="Ellipse_71" data-name="Ellipse 71" cx="2.98" cy="2.98" r="2.98" transform="translate(156.72 180.81)" fill="#197bdd"/>
                <circle id="Ellipse_72" data-name="Ellipse 72" cx="2.98" cy="2.98" r="2.98" transform="translate(148.21 180.81)" fill="#64b9ff"/>
                <path id="Path_4761" data-name="Path 4761" d="M145.65,183.79a2.98,2.98,0,1,1-2.98-2.98A2.975,2.975,0,0,1,145.65,183.79Z" fill="#197bdd"/>
              </g>
              <g id="Group_2148" data-name="Group 2148">
                <circle id="Ellipse_73" data-name="Ellipse 73" cx="2.98" cy="2.98" r="2.98" transform="translate(165.24 209.97)" fill="#197bdd"/>
                <circle id="Ellipse_74" data-name="Ellipse 74" cx="2.98" cy="2.98" r="2.98" transform="translate(156.72 209.97)" fill="#197bdd"/>
                <circle id="Ellipse_75" data-name="Ellipse 75" cx="2.98" cy="2.98" r="2.98" transform="translate(148.21 209.97)" fill="#197bdd"/>
                <path id="Path_4762" data-name="Path 4762" d="M145.65,212.95a2.98,2.98,0,1,1-2.98-2.98A2.975,2.975,0,0,1,145.65,212.95Z" fill="#64b9ff"/>
              </g>
              <g id="Group_2149" data-name="Group 2149">
                <circle id="Ellipse_76" data-name="Ellipse 76" cx="2.98" cy="2.98" r="2.98" transform="translate(150.64 239.13)" fill="#64b9ff"/>
                <circle id="Ellipse_77" data-name="Ellipse 77" cx="2.98" cy="2.98" r="2.98" transform="translate(142.12 239.13)" fill="#197bdd"/>
                <circle id="Ellipse_78" data-name="Ellipse 78" cx="2.98" cy="2.98" r="2.98" transform="translate(133.61 239.13)" fill="#64b9ff"/>
                <circle id="Ellipse_79" data-name="Ellipse 79" cx="2.98" cy="2.98" r="2.98" transform="translate(125.09 239.13)" fill="#197bdd"/>
              </g>
              <g id="Group_2150" data-name="Group 2150">
                <circle id="Ellipse_80" data-name="Ellipse 80" cx="2.98" cy="2.98" r="2.98" transform="translate(165.24 268.29)" fill="#64b9ff"/>
                <circle id="Ellipse_81" data-name="Ellipse 81" cx="2.98" cy="2.98" r="2.98" transform="translate(156.72 268.29)" fill="#64b9ff"/>
                <circle id="Ellipse_82" data-name="Ellipse 82" cx="2.98" cy="2.98" r="2.98" transform="translate(148.21 268.29)" fill="#197bdd"/>
                <path id="Path_4763" data-name="Path 4763" d="M145.65,271.27a2.98,2.98,0,1,1-2.98-2.98A2.975,2.975,0,0,1,145.65,271.27Z" fill="#197bdd"/>
              </g>
              <g id="Group_2151" data-name="Group 2151">
                <circle id="Ellipse_83" data-name="Ellipse 83" cx="2.98" cy="2.98" r="2.98" transform="translate(165.24 297.45)" fill="#197bdd"/>
                <circle id="Ellipse_84" data-name="Ellipse 84" cx="2.98" cy="2.98" r="2.98" transform="translate(156.72 297.45)" fill="#64b9ff"/>
                <circle id="Ellipse_85" data-name="Ellipse 85" cx="2.98" cy="2.98" r="2.98" transform="translate(148.21 297.45)" fill="#197bdd"/>
                <path id="Path_4764" data-name="Path 4764" d="M145.65,300.43a2.98,2.98,0,1,1-2.98-2.98A2.975,2.975,0,0,1,145.65,300.43Z" fill="#197bdd"/>
              </g>
              <g id="Group_2152" data-name="Group 2152">
                <circle id="Ellipse_86" data-name="Ellipse 86" cx="2.98" cy="2.98" r="2.98" transform="translate(165.24 326.61)" fill="#197bdd"/>
                <circle id="Ellipse_87" data-name="Ellipse 87" cx="2.98" cy="2.98" r="2.98" transform="translate(156.72 326.61)" fill="#197bdd"/>
                <circle id="Ellipse_88" data-name="Ellipse 88" cx="2.98" cy="2.98" r="2.98" transform="translate(148.21 326.61)" fill="#64b9ff"/>
                <path id="Path_4765" data-name="Path 4765" d="M145.65,329.59a2.98,2.98,0,1,1-2.98-2.98A2.975,2.975,0,0,1,145.65,329.59Z" fill="#64b9ff"/>
              </g>
              <g id="Group_2153" data-name="Group 2153">
                <path id="Path_4766" data-name="Path 4766" d="M171.2,358.76a2.98,2.98,0,1,1-2.98-2.98A2.975,2.975,0,0,1,171.2,358.76Z" fill="#64b9ff"/>
                <path id="Path_4767" data-name="Path 4767" d="M162.69,358.76a2.98,2.98,0,1,1-2.98-2.98A2.975,2.975,0,0,1,162.69,358.76Z" fill="#197bdd"/>
                <path id="Path_4768" data-name="Path 4768" d="M154.17,358.76a2.98,2.98,0,1,1-2.98-2.98A2.975,2.975,0,0,1,154.17,358.76Z" fill="#197bdd"/>
                <path id="Path_4769" data-name="Path 4769" d="M145.65,358.76a2.98,2.98,0,1,1-2.98-2.98A2.975,2.975,0,0,1,145.65,358.76Z" fill="#197bdd"/>
              </g>
              <g id="Group_2154" data-name="Group 2154">
                <circle id="Ellipse_89" data-name="Ellipse 89" cx="2.98" cy="2.98" r="2.98" transform="translate(165.24 384.94)" fill="#197bdd"/>
                <circle id="Ellipse_90" data-name="Ellipse 90" cx="2.98" cy="2.98" r="2.98" transform="translate(156.72 384.94)" fill="#197bdd"/>
                <circle id="Ellipse_91" data-name="Ellipse 91" cx="2.98" cy="2.98" r="2.98" transform="translate(148.21 384.94)" fill="#64b9ff"/>
                <path id="Path_4770" data-name="Path 4770" d="M145.65,387.92a2.98,2.98,0,1,1-2.98-2.98A2.975,2.975,0,0,1,145.65,387.92Z" fill="#197bdd"/>
              </g>
              <path id="Path_4771" data-name="Path 4771" d="M133.74,183.79a6.46,6.46,0,1,1-6.46-6.46A6.457,6.457,0,0,1,133.74,183.79Z" fill="#fff" opacity="0.2"/>
              <path id="Path_4772" data-name="Path 4772" d="M133.74,212.95a6.46,6.46,0,1,1-6.46-6.46A6.457,6.457,0,0,1,133.74,212.95Z" fill="#fff" opacity="0.2"/>
              <path id="Path_4773" data-name="Path 4773" d="M119.14,242.11a6.46,6.46,0,1,1-6.46-6.46A6.457,6.457,0,0,1,119.14,242.11Z" fill="#fff" opacity="0.2"/>
              <path id="Path_4774" data-name="Path 4774" d="M133.74,271.27a6.46,6.46,0,1,1-6.46-6.46A6.457,6.457,0,0,1,133.74,271.27Z" fill="#fff" opacity="0.2"/>
              <path id="Path_4775" data-name="Path 4775" d="M133.74,300.43a6.46,6.46,0,1,1-6.46-6.46A6.457,6.457,0,0,1,133.74,300.43Z" fill="#fff" opacity="0.2"/>
              <path id="Path_4776" data-name="Path 4776" d="M133.74,329.59a6.46,6.46,0,1,1-6.46-6.46A6.457,6.457,0,0,1,133.74,329.59Z" fill="#fff" opacity="0.2"/>
              <path id="Path_4777" data-name="Path 4777" d="M133.74,358.76a6.46,6.46,0,1,1-6.46-6.46A6.457,6.457,0,0,1,133.74,358.76Z" fill="#fff" opacity="0.2"/>
              <path id="Path_4778" data-name="Path 4778" d="M133.74,387.92a6.46,6.46,0,1,1-6.46-6.46A6.457,6.457,0,0,1,133.74,387.92Z" fill="#fff" opacity="0.2"/>
            </g>
            <g id="Group_2156" data-name="Group 2156">
              <path id="Path_4779" data-name="Path 4779" d="M222.55,145.48a16.67,16.67,0,0,0-8.19-11.55h-.01c0-.13.02-.26.02-.39a16.7,16.7,0,0,0-16.7-16.7h-6.39v1.27a16.753,16.753,0,0,0-9.24,9.6,9.884,9.884,0,0,0-10.92,6.13,11.185,11.185,0,0,0-6.88.52,12.149,12.149,0,0,0-7.73,10.85,11.946,11.946,0,0,0,11.94,12.2h45.21a9.074,9.074,0,0,0,9.16-8.87v-.1A16.056,16.056,0,0,0,222.55,145.48Z" fill="#197bdd"/>
              <path id="Path_4780" data-name="Path 4780" d="M216.16,145.48a16.67,16.67,0,0,0-8.19-11.55h-.01c0-.13.02-.26.02-.39a16.686,16.686,0,0,0-32.33-5.82,9.884,9.884,0,0,0-10.92,6.13,11.185,11.185,0,0,0-6.88.52,12.149,12.149,0,0,0-7.73,10.85,11.946,11.946,0,0,0,11.94,12.2h45.21a9.074,9.074,0,0,0,9.16-8.87v-.1A16.086,16.086,0,0,0,216.16,145.48Z" fill="#4ea4f9"/>
            </g>
          </g>
          <g id="Group_2158" data-name="Group 2158">
            <rect id="Rectangle_398" data-name="Rectangle 398" width="0.84" height="2.51" transform="translate(191.67 106.32)" fill="#0053cc"/>
            <path id="Path_4781" data-name="Path 4781" d="M353.38,163.34h-.84v-4.99h.84Zm0-9.99h-.84v-4.99h.84Zm0-9.99h-.84v-4.99h.84Zm0-9.98h-.84v-4.99h.84Zm0-9.99h-.84V118.4h.84Zm0-9.99h-.84v-4.99h.84Zm0-9.99h-.84V98.42h.84Zm-160.87-2.08h-.84V97.89a14.169,14.169,0,0,1,.09-1.6l.83.1a12.455,12.455,0,0,0-.09,1.5v3.44Zm159.3-7.68a12.48,12.48,0,0,0-2.44-4.14l.63-.55a13.49,13.49,0,0,1,2.6,4.41ZM194.05,91.81l-.73-.4a13.643,13.643,0,0,1,3.26-3.95l.53.65A12.7,12.7,0,0,0,194.05,91.81Zm151.52-5.24a12.634,12.634,0,0,0-4.62-1.31l.07-.83a13.43,13.43,0,0,1,4.93,1.4ZM201.33,85.8l-.25-.8a13.577,13.577,0,0,1,4.11-.64h.95v.84h-.95A13.19,13.19,0,0,0,201.33,85.8Zm134.66-.59h-5v-.84h5Zm-9.99,0h-4.99v-.84H326Zm-9.98,0h-4.99v-.84h4.99Zm-9.99,0h-4.99v-.84h4.99Zm-9.99,0h-5v-.84h5Zm-9.99,0h-5v-.84h5Zm-9.99,0h-4.99v-.84h4.99Zm-9.99,0h-4.99v-.84h4.99Zm-9.99,0h-4.99v-.84h4.99Zm-9.99,0H241.1v-.84h4.99Zm-9.99,0h-4.99v-.84h4.99Zm-9.99,0h-4.99v-.84h4.99Zm-9.98,0h-4.99v-.84h4.99Z" fill="#0053cc"/>
            <rect id="Rectangle_399" data-name="Rectangle 399" width="0.84" height="2.51" transform="translate(352.54 168.36)" fill="#0053cc"/>
          </g>
          <g id="Group_2163" data-name="Group 2163">
            <g id="Group_2161" data-name="Group 2161">
              <path id="Path_4782" data-name="Path 4782" d="M286.2,409.64h7.35l.79-17.01h-7.35Z" fill="#ff8b7b"/>
              <path id="Path_4783" data-name="Path 4783" d="M293.8,408.79h-8.02a.621.621,0,0,0-.61.5l-1.22,6.53a1.111,1.111,0,0,0,1.1,1.31c2.89-.05,7.07-.22,10.71-.22,4.25,0,4.85.23,9.84.23,3.02,0,3.74-3.05,2.47-3.33-5.79-1.26-7.41-1.39-12.48-4.45A3.506,3.506,0,0,0,293.8,408.79Z" fill="#14365b"/>
              <path id="Path_4784" data-name="Path 4784" d="M294.33,392.64l-.4,8.77h-7.35l.41-8.77Z" fill="#ea7063"/>
              <path id="Path_4785" data-name="Path 4785" d="M335.44,165.12c-.14,2.31-.3,4.84-.37,7.26-.06,2.45-.13,4.88-.09,7.3.02,2.41.12,4.8.32,7.1a37.027,37.027,0,0,0,1.06,6.43,11.05,11.05,0,0,0,.87,2.32,5.4,5.4,0,0,0,.38.64l.45.73c.29.49.64.97.96,1.46,1.31,1.95,2.77,3.89,4.26,5.84,3.02,3.85,6.27,7.75,9.48,11.55l-3.83,4.48a91.6,91.6,0,0,1-12.47-9.73,75.8,75.8,0,0,1-5.64-5.81c-.45-.53-.91-1.03-1.33-1.6l-.65-.84a11.5,11.5,0,0,1-.69-.95,21.044,21.044,0,0,1-2.28-4.63,43.726,43.726,0,0,1-2-8.52c-.41-2.76-.59-5.46-.73-8.15-.09-2.68-.13-5.35-.03-8,.1-2.67.21-5.24.51-8.01Z" fill="#ff8b7b"/>
              <path id="Path_4786" data-name="Path 4786" d="M338.04,180.18l-3.12,1.25-5.25,2.09-9.32,3.73s-4.25-22.11-1.96-28.83c2.52-7.38,11.42-7.21,16.23,1.2C339.3,167.82,338.04,180.18,338.04,180.18Z" fill="#9fc6ff"/>
              <path id="Path_4787" data-name="Path 4787" d="M334.46,181.61l-4.79,1.91c-.8-3.47-1.54-9.28.83-13.63C333.74,172.6,334.24,178.07,334.46,181.61Z" fill="#77b3fc"/>
              <path id="Path_4788" data-name="Path 4788" d="M329.7,212.33H289.49c-.29-3.61.62-13.39.02-26.71-.14-3.07-.36-6.32-.69-9.73a166.313,166.313,0,0,0-3.82-23,102.3,102.3,0,0,1,13.4-1.7,147.706,147.706,0,0,1,17.1,0,73.62,73.62,0,0,1,11.66,2.14S336.61,170.06,329.7,212.33Z" fill="#9fc6ff"/>
              <path id="Path_4789" data-name="Path 4789" d="M289.51,185.62c-.14-3.07-.36-6.32-.69-9.73,1.3-.81,3-.86,3.35,3.9C292.49,184.19,290.95,185.41,289.51,185.62Z" fill="#77b3fc"/>
              <path id="Path_4790" data-name="Path 4790" d="M364.17,221.11l-5.8,3.61-7.16-1.53,5.7-7.07Z" fill="#ff8b7b"/>
              <path id="Path_4791" data-name="Path 4791" d="M350.21,215.04l6.69,1.08-5.7,7.07s-3.57-.36-4.55-5.2Z" fill="#ff8b7b"/>
              <path id="Path_4792" data-name="Path 4792" d="M299.41,131.94c1.28,5.5,2.71,15.58-1,19.25,0,0,1.86,3.69,12.08,3.69,9.34,0,5.01-3.69,5.01-3.69-6.19-1.46-6.19-6.01-5.28-10.29Z" fill="#ff8b7b"/>
              <path id="Path_4793" data-name="Path 4793" d="M303.82,135.6l6.4,5.3a17.8,17.8,0,0,0-.42,3.03c-1.95,1.9-5.67-2.91-6-5.36A8.138,8.138,0,0,1,303.82,135.6Z" fill="#ea7063"/>
              <path id="Path_4794" data-name="Path 4794" d="M321.24,117.95c2.56,3.18-.43,13.2-5.73,12.95S316.38,111.92,321.24,117.95Z" fill="#0f264c"/>
              <path id="Path_4795" data-name="Path 4795" d="M300.5,122.8c-.57,7.41-1.29,11.71,1.91,16.13a9.825,9.825,0,0,0,17.18-2.14c2.51-6.31,3.03-17.38-3.79-21.56A9.888,9.888,0,0,0,300.5,122.8Z" fill="#ff8b7b"/>
              <path id="Path_4796" data-name="Path 4796" d="M297.82,113.47l8.01,2.83c-3.51,4.7,1.58,15.75-4.61,13.69C298.37,129.05,289.11,118.81,297.82,113.47Z" fill="#0f264c"/>
              <path id="Path_4797" data-name="Path 4797" d="M301.7,115.39c3.02,2.22,15.31,4.86,22.34.94a21.881,21.881,0,0,1-4.19-1.58s5.26-.25,7.59-4.14a16.921,16.921,0,0,1-9.66-1.22,8.749,8.749,0,0,0,5.37-4.56c-9.71.12-30.62,2.08-26.96,8.92S301.7,115.39,301.7,115.39Z" fill="#0f264c"/>
              <path id="Path_4798" data-name="Path 4798" d="M297.5,114.49a13.777,13.777,0,0,1-3.95-2.83C293.09,112.81,293.09,115.92,297.5,114.49Z" fill="#0f264c"/>
              <path id="Path_4799" data-name="Path 4799" d="M296.03,130.3a7.47,7.47,0,0,0,3.95,3.85c2.33.95,3.7-1.04,3.23-3.36-.43-2.09-2.16-5.1-4.59-5.06C296.23,125.77,295.1,128.17,296.03,130.3Z" fill="#ff8b7b"/>
              <path id="Path_4800" data-name="Path 4800" d="M308.75,409.64h7.34l1.52-17.01h-7.34Z" fill="#ff8b7b"/>
              <path id="Path_4801" data-name="Path 4801" d="M316.43,408.79h-8.02a.621.621,0,0,0-.61.5l-1.22,6.53a1.111,1.111,0,0,0,1.1,1.31c2.89-.05,7.07-.22,10.71-.22,4.25,0,7.93.23,12.92.23,3.02,0,3.74-3.05,2.47-3.33-5.79-1.26-10.49-1.39-15.57-4.45A3.471,3.471,0,0,0,316.43,408.79Z" fill="#14365b"/>
              <path id="Path_4802" data-name="Path 4802" d="M317.61,392.64l-.78,8.77h-7.35l.78-8.77Z" fill="#ea7063"/>
              <path id="Path_4803" data-name="Path 4803" d="M319.5,409.92a2.228,2.228,0,0,0,1.48-.15,1.013,1.013,0,0,0,.48-.87.561.561,0,0,0-.24-.54c-.77-.55-3.36.54-3.66.67a.167.167,0,0,0-.1.17.171.171,0,0,0,.12.16A10.249,10.249,0,0,0,319.5,409.92Zm1.3-1.36a.441.441,0,0,1,.22.08.252.252,0,0,1,.09.22.7.7,0,0,1-.32.6,3.651,3.651,0,0,1-2.67-.28A7.054,7.054,0,0,1,320.8,408.56Z" fill="#407bff"/>
              <path id="Path_4804" data-name="Path 4804" d="M317.62,409.36a.277.277,0,0,0,.09-.01c.82-.3,2.52-1.69,2.46-2.54a.613.613,0,0,0-.51-.55.94.94,0,0,0-.78.11c-.95.57-1.39,2.68-1.41,2.77a.183.183,0,0,0,.06.17A.162.162,0,0,0,317.62,409.36Zm1.87-2.78a.236.236,0,0,1,.08.02c.23.06.23.17.24.22.03.5-1.07,1.58-1.91,2.04a4.058,4.058,0,0,1,1.17-2.19A.647.647,0,0,1,319.49,406.58Z" fill="#407bff"/>
              <path id="Path_4805" data-name="Path 4805" d="M306.71,399.3h11.95s18.42-70.32,18.06-94.17c-.34-22.94-7.02-92.8-7.02-92.8H303.27s2.06,15.54,4.4,34.71c2.09,16.92,4.39,36.69,5.7,51.09.38,4.28.69,8.08.87,11.2C315.61,332.75,306.71,399.3,306.71,399.3Z" fill="#0053cc"/>
              <path id="Path_4806" data-name="Path 4806" d="M307.66,247.04c2.09,16.92,4.39,36.69,5.7,51.09,2.79-12.57,9.61-49.11-.62-67.59C310.19,234.19,308.63,240.5,307.66,247.04Z" fill="#004daa"/>
              <path id="Path_4807" data-name="Path 4807" d="M315.44,212.33s-.99,67.37-4.9,88.89c-4.28,23.57-12.8,98.08-12.8,98.08H283.97s2.01-72.61,4.1-95.94c2.27-25.33,1.44-91.03,1.44-91.03h25.93Z" fill="#0053cc"/>
              <path id="Path_4808" data-name="Path 4808" d="M283.44,399.6h14.83l1.09-5.6-16.43-.46Z" fill="#0f264c"/>
              <path id="Path_4809" data-name="Path 4809" d="M306.03,399.6h14.83l1.1-5.6-16.38.28Z" fill="#0f264c"/>
              <path id="Path_4810" data-name="Path 4810" d="M289.22,391.17h-.02a.134.134,0,0,1-.11-.15c.09-.7,1.12-65.85,2.99-86.81,2.04-22.75.76-83.11.8-83.62a.124.124,0,0,1,.14-.11.14.14,0,0,1,.12.14c-.04.51,1.23,60.87-.8,83.62-1.88,20.97-2.9,86.13-2.99,86.82A.148.148,0,0,1,289.22,391.17Z" fill="#9fc6ff"/>
              <path id="Path_4811" data-name="Path 4811" d="M311.41,126.88c-.08.6.17,1.14.56,1.21s.78-.36.86-.96-.17-1.14-.56-1.21S311.49,126.28,311.41,126.88Z" fill="#0f264c"/>
              <path id="Path_4812" data-name="Path 4812" d="M318.34,127.71c-.08.6.17,1.14.56,1.21s.78-.36.86-.96-.17-1.14-.56-1.21S318.42,127.11,318.34,127.71Z" fill="#0f264c"/>
              <path id="Path_4813" data-name="Path 4813" d="M315.99,127.92a22.239,22.239,0,0,0,2.16,5.61,3.512,3.512,0,0,1-2.95.03Z" fill="#ff5652"/>
              <path id="Path_4814" data-name="Path 4814" d="M313.95,135.95a.165.165,0,0,0,.19-.15.18.18,0,0,0-.16-.2,5.03,5.03,0,0,1-3.72-2.38.174.174,0,0,0-.24-.08.179.179,0,0,0-.08.24A5.407,5.407,0,0,0,313.95,135.95Z" fill="#0f264c"/>
              <path id="Path_4815" data-name="Path 4815" d="M309.58,122.56a.345.345,0,0,0,.31-.06,2.772,2.772,0,0,1,2.49-.55.349.349,0,0,0,.45-.22.361.361,0,0,0-.24-.45,3.512,3.512,0,0,0-3.16.66.36.36,0,0,0-.05.5A.466.466,0,0,0,309.58,122.56Z" fill="#0f264c"/>
              <g id="Group_2159" data-name="Group 2159">
                <path id="Path_4816" data-name="Path 4816" d="M290.92,151.53l1.89-.17a.382.382,0,0,1,.41.3c6.3,28.37,4.42,58.48,4.42,58.48h-2.09a272.145,272.145,0,0,0-4.94-58.2A.327.327,0,0,1,290.92,151.53Z" fill="#318fff"/>
                <path id="Path_4817" data-name="Path 4817" d="M295.93,210.82h1.45a.644.644,0,0,0,.65-.68h0a.712.712,0,0,0-.7-.68h-1.45a.644.644,0,0,0-.65.68h0A.712.712,0,0,0,295.93,210.82Z" fill="#0f264c"/>
                <path id="Path_4818" data-name="Path 4818" d="M297.61,212.59l-.07-1.9a.923.923,0,0,0-.92-.88h0a.844.844,0,0,0-.85.88l.07,1.9a.923.923,0,0,0,.92.88h0A.856.856,0,0,0,297.61,212.59Z" fill="#0f264c"/>
              </g>
              <path id="Path_4819" data-name="Path 4819" d="M321.47,124.11a.292.292,0,0,0,.16-.01.363.363,0,0,0,.23-.45,3.686,3.686,0,0,0-2.23-2.43.34.34,0,0,0-.43.24.375.375,0,0,0,.25.45h0a2.958,2.958,0,0,1,1.75,1.94A.329.329,0,0,0,321.47,124.11Z" fill="#0f264c"/>
              <path id="Path_4820" data-name="Path 4820" d="M289.53,164.76c-1.15,4.71-2.3,9.61-3.33,14.38-.49,2.39-.97,4.77-1.35,7.11a42.645,42.645,0,0,0-.63,6.55,19.044,19.044,0,0,0,4.07,11.14,32.339,32.339,0,0,0,4.58,4.9c.86.76,1.76,1.51,2.7,2.2.47.34.95.68,1.43,1,.46.32,1.01.67,1.38.91l-2.18,5.47c-.8-.24-1.4-.45-2.07-.7q-.975-.375-1.92-.81a40.684,40.684,0,0,1-3.72-1.9,34.922,34.922,0,0,1-6.8-5.19,28.736,28.736,0,0,1-5.36-7.24,26.275,26.275,0,0,1-2.7-8.98,47.955,47.955,0,0,1,.03-8.66c.24-2.7.57-5.34,1-7.94a137.306,137.306,0,0,1,3.4-15.34Z" fill="#ff8b7b"/>
              <path id="Path_4821" data-name="Path 4821" d="M285,152.89c-7.96,1.43-12.45,22.67-12.45,22.67l19.66,7.04a48.183,48.183,0,0,0,.02-16.17C290.79,157.37,292.55,151.54,285,152.89Z" fill="#9fc6ff"/>
              <g id="Group_2160" data-name="Group 2160">
                <path id="Path_4822" data-name="Path 4822" d="M322.76,151.91l1.89.36a.4.4,0,0,1,.31.31c5,28.38,1.68,57.57,1.68,57.57h-2.09c2.02-30.89-1.59-54.16-2.21-57.83A.353.353,0,0,1,322.76,151.91Z" fill="#318fff"/>
                <path id="Path_4823" data-name="Path 4823" d="M324.92,210.82h1.45a.681.681,0,0,0,.68-.68h0a.679.679,0,0,0-.67-.68h-1.45a.681.681,0,0,0-.68.68h0A.66.66,0,0,0,324.92,210.82Z" fill="#0f264c"/>
                <path id="Path_4824" data-name="Path 4824" d="M326.51,212.59l.02-1.9a.869.869,0,0,0-.88-.88h0a.89.89,0,0,0-.89.88l-.02,1.9a.869.869,0,0,0,.88.88h0A.9.9,0,0,0,326.51,212.59Z" fill="#0f264c"/>
              </g>
              <path id="Path_4825" data-name="Path 4825" d="M296.87,409.92a2.228,2.228,0,0,0,1.48-.15,1.013,1.013,0,0,0,.48-.87.561.561,0,0,0-.24-.54c-.77-.55-3.36.54-3.66.67a.167.167,0,0,0-.1.17.171.171,0,0,0,.12.16A10.478,10.478,0,0,0,296.87,409.92Zm1.3-1.36a.441.441,0,0,1,.22.08.252.252,0,0,1,.09.22.7.7,0,0,1-.32.6,3.651,3.651,0,0,1-2.67-.28A7.134,7.134,0,0,1,298.17,408.56Z" fill="#407bff"/>
              <path id="Path_4826" data-name="Path 4826" d="M294.99,409.36a.277.277,0,0,0,.09-.01c.82-.3,2.52-1.69,2.46-2.54a.613.613,0,0,0-.51-.55.94.94,0,0,0-.78.11c-.95.57-1.39,2.68-1.41,2.77a.183.183,0,0,0,.06.17A.2.2,0,0,0,294.99,409.36Zm1.88-2.78a.236.236,0,0,1,.08.02c.23.06.23.17.24.22.03.5-1.07,1.58-1.91,2.04a4.058,4.058,0,0,1,1.17-2.19A.622.622,0,0,1,296.87,406.58Z" fill="#407bff"/>
              <path id="Path_4827" data-name="Path 4827" d="M292.45,216.96l2.3-4.18,6.31.22,4.91,2.04,3.34,4.92-8.58-.52S295.47,220.93,292.45,216.96Z" fill="#ff8b7b"/>
              <path id="Path_4828" data-name="Path 4828" d="M309.87,154.87l-1.51-1.06-3.01,3Z" fill="#77b3fc"/>
              <path id="Path_4829" data-name="Path 4829" d="M308.36,153.81s-2.45,3.61-2.86,6.22c-3.13-1.28-9.07-4.48-10.01-9a12.674,12.674,0,0,0,3.13-1.5S301.83,152.17,308.36,153.81Z" fill="#318fff"/>
              <path id="Path_4830" data-name="Path 4830" d="M309.87,154.87l.56-1.23,4.15,3.17Z" fill="#77b3fc"/>
              <path id="Path_4831" data-name="Path 4831" d="M310.43,153.64a10.488,10.488,0,0,1,3.18,5.75c3.04-1.28,4.1-5.45,3.19-8.23a18.842,18.842,0,0,0-3.7-1.2A3.416,3.416,0,0,1,310.43,153.64Z" fill="#318fff"/>
            </g>
            <g id="Group_2162" data-name="Group 2162">
              <path id="Path_4832" data-name="Path 4832" d="M382.45,183.43l-62.97-2.22-9.11,36.81,62.97,2.23Z" fill="#318fff"/>
              <path id="Path_4833" data-name="Path 4833" d="M384.38,183.5l-62.96-2.22-9.11,36.81,62.97,2.23Z" fill="#0f264c"/>
              <path id="Path_4834" data-name="Path 4834" d="M375.28,220.32l-.26,2.04-62.97-2.23.26-2.04Z" fill="#0f264c"/>
              <path id="Path_4835" data-name="Path 4835" d="M312.31,218.09l-.26,2.04-24.71-.87.25-2.04Z" fill="#318fff"/>
            </g>
          </g>
        </g>
      </g>
    </g>
  </g>
</svg>
