<svg xmlns="http://www.w3.org/2000/svg" width="100.573" height="16.762" viewBox="0 0 100.573 16.762">
  <g id="five-stars" transform="translate(-4 -16)">
    <g id="Group_4" data-name="Group 4" transform="translate(4 16)">
      <path id="Path_6" data-name="Path 6" d="M12.381,16l2.59,5.518,5.791.884-4.191,4.3.989,6.065L12.381,29.9,7.2,32.762,8.191,26.7,4,22.4l5.791-.884Z" transform="translate(-4 -16)" fill="#fc9011"/>
    </g>
    <g id="Group_5" data-name="Group 5" transform="translate(4 16)">
      <path id="Path_7" data-name="Path 7" d="M9.5,31.489l.782-4.792L6.1,22.4l5.791-.884,1.542-3.286L12.381,16l-2.59,5.518L4,22.4l4.191,4.3L7.2,32.762Z" transform="translate(-4 -16)" fill="#fc9011"/>
    </g>
    <g id="Group_6" data-name="Group 6" transform="translate(45.905 16)">
      <path id="Path_8" data-name="Path 8" d="M52.381,16l2.59,5.518,5.791.884-4.191,4.3.989,6.065L52.381,29.9,47.2,32.762l.989-6.065L44,22.4l5.791-.884Z" transform="translate(-44 -16)" fill="#fc9011"/>
    </g>
    <g id="Group_7" data-name="Group 7" transform="translate(45.905 16)">
      <path id="Path_9" data-name="Path 9" d="M49.5,31.489l.782-4.792L46.1,22.4l5.791-.884,1.542-3.286L52.381,16l-2.59,5.518L44,22.4l4.191,4.3L47.2,32.762Z" transform="translate(-44 -16)" fill="#fc9011"/>
    </g>
    <g id="Group_8" data-name="Group 8" transform="translate(24.953 16)">
      <path id="Path_10" data-name="Path 10" d="M32.381,16l2.59,5.518,5.791.884-4.191,4.3.989,6.065L32.381,29.9,27.2,32.762l.989-6.065L24,22.4l5.791-.884Z" transform="translate(-24 -16)" fill="#fc9011"/>
    </g>
    <g id="Group_9" data-name="Group 9" transform="translate(24.953 16)">
      <path id="Path_11" data-name="Path 11" d="M29.5,31.489l.782-4.792L26.1,22.4l5.791-.884,1.542-3.286L32.381,16l-2.59,5.518L24,22.4l4.191,4.3L27.2,32.762Z" transform="translate(-24 -16)" fill="#fc9011"/>
    </g>
    <g id="Group_10" data-name="Group 10" transform="translate(66.858 16)">
      <path id="Path_12" data-name="Path 12" d="M22.381,32l2.59,5.518,5.791.884-4.191,4.3.989,6.065L22.381,45.9,17.2,48.762l.989-6.065L14,38.4l5.791-.884Z" transform="translate(-14 -32)" fill="#fc9011"/>
    </g>
    <g id="Group_11" data-name="Group 11" transform="translate(66.858 16)">
      <path id="Path_13" data-name="Path 13" d="M19.5,47.489l.782-4.792L16.1,38.4l5.791-.884,1.542-3.286L22.381,32l-2.59,5.518L14,38.4l4.191,4.3L17.2,48.762Z" transform="translate(-14 -32)" fill="#fc9011"/>
    </g>
    <g id="Group_12" data-name="Group 12" transform="translate(87.811 16)">
      <path id="Path_14" data-name="Path 14" d="M42.381,32l2.59,5.518,5.791.884-4.191,4.3.989,6.065L42.381,45.9,37.2,48.762l.989-6.065L34,38.4l5.791-.884Z" transform="translate(-34 -32)" fill="#fc9011"/>
    </g>
    <g id="Group_13" data-name="Group 13" transform="translate(87.811 16)">
      <path id="Path_15" data-name="Path 15" d="M39.5,47.489l.782-4.792L36.1,38.4l5.791-.884,1.542-3.286L42.381,32l-2.59,5.518L34,38.4l4.191,4.3L37.2,48.762Z" transform="translate(-34 -32)" fill="#fc9011"/>
    </g>
  </g>
</svg>
