<svg xmlns="http://www.w3.org/2000/svg" width="88.999" height="15.229" viewBox="0 0 88.999 15.229">
  <g id="social_media_icon" data-name="social media icon" transform="translate(-163.999 -2809.006)">
    <g id="facebook-logo" transform="translate(163.999 2809.639)">
      <path id="Path_4508" data-name="Path 4508" d="M29.414,0,27.586,0A3.212,3.212,0,0,0,24.2,3.471v1.6H22.365a.288.288,0,0,0-.288.288V7.677a.288.288,0,0,0,.288.288H24.2v5.85a.287.287,0,0,0,.288.288h2.4a.288.288,0,0,0,.288-.288V7.964h2.15a.287.287,0,0,0,.288-.288V5.358a.288.288,0,0,0-.288-.288H27.177V3.714c0-.652.155-.983,1-.983h1.232a.288.288,0,0,0,.287-.288V.29A.288.288,0,0,0,29.414,0Z" transform="translate(-22.077 0)" fill="#fff"/>
    </g>
    <path id="twitter" d="M13.832,5.374a6.309,6.309,0,0,0,1.584-1.64h0a6.6,6.6,0,0,1-1.821.5,3.144,3.144,0,0,0,1.391-1.746,6.324,6.324,0,0,1-2,.765A3.16,3.16,0,0,0,7.515,5.411a3.254,3.254,0,0,0,.073.721A8.948,8.948,0,0,1,1.073,2.826a3.16,3.16,0,0,0,.971,4.224A3.124,3.124,0,0,1,.617,6.66v.035A3.175,3.175,0,0,0,3.149,9.8a3.143,3.143,0,0,1-.829.1,2.79,2.79,0,0,1-.6-.054,3.192,3.192,0,0,0,2.953,2.2A6.353,6.353,0,0,1,.756,13.4,5.977,5.977,0,0,1,0,13.357a8.9,8.9,0,0,0,4.848,1.418,8.934,8.934,0,0,0,8.984-9.4Z" transform="translate(182.626 2808.966)" fill="#fff"/>
    <g id="linkedin" transform="translate(208.963 2809.006)">
      <path id="Path_4509" data-name="Path 4509" d="M1.87-.668a1.723,1.723,0,1,0-.043,3.436h.021A1.723,1.723,0,1,0,1.87-.668Zm0,0" transform="translate(0 0.668)" fill="#fff"/>
      <path id="Path_4510" data-name="Path 4510" d="M8.109,198.313h3.3v9.943h-3.3Zm0,0" transform="translate(-7.914 -193.52)" fill="#fff"/>
      <path id="Path_4511" data-name="Path 4511" d="M227.5,188.625a4.14,4.14,0,0,0-2.978,1.675v-1.442h-3.3V198.8h3.3v-5.552a2.265,2.265,0,0,1,.109-.807,1.809,1.809,0,0,1,1.7-1.208c1.2,0,1.674.912,1.674,2.248V198.8h3.3v-5.7c0-3.054-1.63-4.475-3.8-4.475Zm0,0" transform="translate(-215.886 -184.065)" fill="#fff"/>
    </g>
    <path id="youtube" d="M18.817,5.448l.024.157a2.439,2.439,0,0,0-1.658-1.693l-.017,0C15.666,3.5,9.629,3.5,9.629,3.5s-6.021-.008-7.537.407A2.441,2.441,0,0,0,.422,5.588l0,.017a26.823,26.823,0,0,0,.025,9.579l-.025-.159a2.439,2.439,0,0,0,1.658,1.693l.017,0c1.5.408,7.537.408,7.537.408s6.021,0,7.537-.408a2.44,2.44,0,0,0,1.671-1.681l0-.017a25.068,25.068,0,0,0,.4-4.529c0-.059,0-.118,0-.177s0-.119,0-.184a25.863,25.863,0,0,0-.426-4.687ZM7.7,13.243V7.4l5.024,2.928Z" transform="translate(233.756 2807.105)" fill="#fff"/>
  </g>
</svg>
